<mxfile host="app.diagrams.net" modified="2024-03-26T08:43:19.912Z" agent="Mozilla/5.0 (Windows NT 10.0; Win64; x64) AppleWebKit/537.36 (KHTML, like Gecko) Chrome/123.0.0.0 Safari/537.36" etag="WJOfBA71yr4STA7qsWRs" version="24.1.0" type="device">
  <diagram name="Страница — 1" id="JMz-xbN2u2yka9joVqkZ">
    <mxGraphModel dx="2360" dy="1215" grid="1" gridSize="10" guides="1" tooltips="1" connect="1" arrows="1" fold="1" page="1" pageScale="1" pageWidth="827" pageHeight="1169" math="0" shadow="0">
      <root>
        <mxCell id="0" />
        <mxCell id="1" parent="0" />
        <UserObject label="" plantUmlData="{&quot;data&quot;:&quot;@startuml\nactor Diver\nparticipant DiveManagementSystem\nparticipant DiveLogDatabase\n\nDiver-&gt;&gt;DiveManagementSystem: Log Dive\nactivate DiveManagementSystem\nDiveManagementSystem-&gt;&gt;Diver: Enter dive details\nDiver-&gt;&gt;DiveManagementSystem: Dive details\nDiveManagementSystem-&gt;&gt;DiveLogDatabase: Store dive log\ndeactivate DiveManagementSystem\nDiveManagementSystem-&gt;&gt;Diver: Dive logged successfully\n@enduml&quot;,&quot;format&quot;:&quot;svg&quot;}" id="wGYJW0pL6X7Hzjq0BeQI-1">
          <mxCell style="shape=image;noLabel=1;verticalAlign=top;aspect=fixed;imageAspect=0;image=data:image/svg+xml,PD94bWwgdmVyc2lvbj0iMS4wIiBlbmNvZGluZz0idXMtYXNjaWkiIHN0YW5kYWxvbmU9Im5vIj8+PHN2ZyB4bWxucz0iaHR0cDovL3d3dy53My5vcmcvMjAwMC9zdmciIHhtbG5zOnhsaW5rPSJodHRwOi8vd3d3LnczLm9yZy8xOTk5L3hsaW5rIiBjb250ZW50U3R5bGVUeXBlPSJ0ZXh0L2NzcyIgaGVpZ2h0PSIzMTlweCIgcHJlc2VydmVBc3BlY3RSYXRpbz0ibm9uZSIgc3R5bGU9IndpZHRoOjQyNXB4O2hlaWdodDozMTlweDtiYWNrZ3JvdW5kOiNGRkZGRkY7IiB2ZXJzaW9uPSIxLjEiIHZpZXdCb3g9IjAgMCA0MjUgMzE5IiB3aWR0aD0iNDI1cHgiIHpvb21BbmRQYW49Im1hZ25pZnkiPjxkZWZzLz48Zz48cmVjdCBmaWxsPSIjRkZGRkZGIiBoZWlnaHQ9IjgzLjc0MjIiIHN0eWxlPSJzdHJva2U6IzE4MTgxODtzdHJva2Utd2lkdGg6MS4wOyIgd2lkdGg9IjEwIiB4PSIyMDcuNSIgeT0iMTA5Ljg5ODQiLz48bGluZSBzdHlsZT0ic3Ryb2tlOiMxODE4MTg7c3Ryb2tlLXdpZHRoOjAuNTtzdHJva2UtZGFzaGFycmF5OjUuMCw1LjA7IiB4MT0iMjUiIHgyPSIyNSIgeTE9Ijc5Ljk4NDQiIHkyPSIyMzkuNTU0NyIvPjxsaW5lIHN0eWxlPSJzdHJva2U6IzE4MTgxODtzdHJva2Utd2lkdGg6MC41O3N0cm9rZS1kYXNoYXJyYXk6NS4wLDUuMDsiIHgxPSIyMTIuNSIgeDI9IjIxMi41IiB5MT0iNzkuOTg0NCIgeTI9IjIzOS41NTQ3Ii8+PGxpbmUgc3R5bGU9InN0cm9rZTojMTgxODE4O3N0cm9rZS13aWR0aDowLjU7c3Ryb2tlLWRhc2hhcnJheTo1LjAsNS4wOyIgeDE9IjM1OS41IiB4Mj0iMzU5LjUiIHkxPSI3OS45ODQ0IiB5Mj0iMjM5LjU1NDciLz48dGV4dCBmaWxsPSIjMDAwMDAwIiBmb250LWZhbWlseT0ic2Fucy1zZXJpZiIgZm9udC1zaXplPSIxNCIgbGVuZ3RoQWRqdXN0PSJzcGFjaW5nIiB0ZXh0TGVuZ3RoPSIzNSIgeD0iNSIgeT0iNzguMjM0NCI+RGl2ZXI8L3RleHQ+PGVsbGlwc2UgY3g9IjI1LjUiIGN5PSIxMy41IiBmaWxsPSIjRTJFMkYwIiByeD0iOCIgcnk9IjgiIHN0eWxlPSJzdHJva2U6IzE4MTgxODtzdHJva2Utd2lkdGg6MC41OyIvPjxwYXRoIGQ9Ik0yNS41LDIxLjUgTDI1LjUsNDguNSBNMTIuNSwyOS41IEwzOC41LDI5LjUgTTI1LjUsNDguNSBMMTIuNSw2My41IE0yNS41LDQ4LjUgTDM4LjUsNjMuNSAiIGZpbGw9Im5vbmUiIHN0eWxlPSJzdHJva2U6IzE4MTgxODtzdHJva2Utd2lkdGg6MC41OyIvPjx0ZXh0IGZpbGw9IiMwMDAwMDAiIGZvbnQtZmFtaWx5PSJzYW5zLXNlcmlmIiBmb250LXNpemU9IjE0IiBsZW5ndGhBZGp1c3Q9InNwYWNpbmciIHRleHRMZW5ndGg9IjM1IiB4PSI1IiB5PSIyNTEuNzg5MSI+RGl2ZXI8L3RleHQ+PGVsbGlwc2UgY3g9IjI1LjUiIGN5PSIyNjIuMDM5MSIgZmlsbD0iI0UyRTJGMCIgcng9IjgiIHJ5PSI4IiBzdHlsZT0ic3Ryb2tlOiMxODE4MTg7c3Ryb2tlLXdpZHRoOjAuNTsiLz48cGF0aCBkPSJNMjUuNSwyNzAuMDM5MSBMMjUuNSwyOTcuMDM5MSBNMTIuNSwyNzguMDM5MSBMMzguNSwyNzguMDM5MSBNMjUuNSwyOTcuMDM5MSBMMTIuNSwzMTIuMDM5MSBNMjUuNSwyOTcuMDM5MSBMMzguNSwzMTIuMDM5MSAiIGZpbGw9Im5vbmUiIHN0eWxlPSJzdHJva2U6IzE4MTgxODtzdHJva2Utd2lkdGg6MC41OyIvPjxyZWN0IGZpbGw9IiNFMkUyRjAiIGhlaWdodD0iMjguOTg0NCIgcng9IjIuNSIgcnk9IjIuNSIgc3R5bGU9InN0cm9rZTojMTgxODE4O3N0cm9rZS13aWR0aDowLjU7IiB3aWR0aD0iMTU2IiB4PSIxMzQuNSIgeT0iNTAiLz48dGV4dCBmaWxsPSIjMDAwMDAwIiBmb250LWZhbWlseT0ic2Fucy1zZXJpZiIgZm9udC1zaXplPSIxNCIgbGVuZ3RoQWRqdXN0PSJzcGFjaW5nIiB0ZXh0TGVuZ3RoPSIxNDIiIHg9IjE0MS41IiB5PSI3MC4yMzQ0Ij5EaXZlTWFuYWdlbWVudFN5c3RlbTwvdGV4dD48cmVjdCBmaWxsPSIjRTJFMkYwIiBoZWlnaHQ9IjI4Ljk4NDQiIHJ4PSIyLjUiIHJ5PSIyLjUiIHN0eWxlPSJzdHJva2U6IzE4MTgxODtzdHJva2Utd2lkdGg6MC41OyIgd2lkdGg9IjE1NiIgeD0iMTM0LjUiIHk9IjIzOC41NTQ3Ii8+PHRleHQgZmlsbD0iIzAwMDAwMCIgZm9udC1mYW1pbHk9InNhbnMtc2VyaWYiIGZvbnQtc2l6ZT0iMTQiIGxlbmd0aEFkanVzdD0ic3BhY2luZyIgdGV4dExlbmd0aD0iMTQyIiB4PSIxNDEuNSIgeT0iMjU4Ljc4OTEiPkRpdmVNYW5hZ2VtZW50U3lzdGVtPC90ZXh0PjxyZWN0IGZpbGw9IiNFMkUyRjAiIGhlaWdodD0iMjguOTg0NCIgcng9IjIuNSIgcnk9IjIuNSIgc3R5bGU9InN0cm9rZTojMTgxODE4O3N0cm9rZS13aWR0aDowLjU7IiB3aWR0aD0iMTE5IiB4PSIzMDAuNSIgeT0iNTAiLz48dGV4dCBmaWxsPSIjMDAwMDAwIiBmb250LWZhbWlseT0ic2Fucy1zZXJpZiIgZm9udC1zaXplPSIxNCIgbGVuZ3RoQWRqdXN0PSJzcGFjaW5nIiB0ZXh0TGVuZ3RoPSIxMDUiIHg9IjMwNy41IiB5PSI3MC4yMzQ0Ij5EaXZlTG9nRGF0YWJhc2U8L3RleHQ+PHJlY3QgZmlsbD0iI0UyRTJGMCIgaGVpZ2h0PSIyOC45ODQ0IiByeD0iMi41IiByeT0iMi41IiBzdHlsZT0ic3Ryb2tlOiMxODE4MTg7c3Ryb2tlLXdpZHRoOjAuNTsiIHdpZHRoPSIxMTkiIHg9IjMwMC41IiB5PSIyMzguNTU0NyIvPjx0ZXh0IGZpbGw9IiMwMDAwMDAiIGZvbnQtZmFtaWx5PSJzYW5zLXNlcmlmIiBmb250LXNpemU9IjE0IiBsZW5ndGhBZGp1c3Q9InNwYWNpbmciIHRleHRMZW5ndGg9IjEwNSIgeD0iMzA3LjUiIHk9IjI1OC43ODkxIj5EaXZlTG9nRGF0YWJhc2U8L3RleHQ+PHJlY3QgZmlsbD0iI0ZGRkZGRiIgaGVpZ2h0PSI4My43NDIyIiBzdHlsZT0ic3Ryb2tlOiMxODE4MTg7c3Ryb2tlLXdpZHRoOjEuMDsiIHdpZHRoPSIxMCIgeD0iMjA3LjUiIHk9IjEwOS44OTg0Ii8+PGxpbmUgc3R5bGU9InN0cm9rZTojMTgxODE4O3N0cm9rZS13aWR0aDoxLjA7IiB4MT0iMjA1LjUiIHgyPSIxOTUuNSIgeTE9IjEwOS44OTg0IiB5Mj0iMTA1Ljg5ODQiLz48bGluZSBzdHlsZT0ic3Ryb2tlOiMxODE4MTg7c3Ryb2tlLXdpZHRoOjEuMDsiIHgxPSIyMDUuNSIgeDI9IjE5NS41IiB5MT0iMTA5Ljg5ODQiIHkyPSIxMTMuODk4NCIvPjxsaW5lIHN0eWxlPSJzdHJva2U6IzE4MTgxODtzdHJva2Utd2lkdGg6MS4wOyIgeDE9IjI1LjUiIHgyPSIyMDYuNSIgeTE9IjEwOS44OTg0IiB5Mj0iMTA5Ljg5ODQiLz48dGV4dCBmaWxsPSIjMDAwMDAwIiBmb250LWZhbWlseT0ic2Fucy1zZXJpZiIgZm9udC1zaXplPSIxMyIgbGVuZ3RoQWRqdXN0PSJzcGFjaW5nIiB0ZXh0TGVuZ3RoPSI1NSIgeD0iMzIuNSIgeT0iMTA2LjI3MzQiPkxvZyBEaXZlPC90ZXh0PjxsaW5lIHN0eWxlPSJzdHJva2U6IzE4MTgxODtzdHJva2Utd2lkdGg6MS4wOyIgeDE9IjI2LjUiIHgyPSIzNi41IiB5MT0iMTM3LjgxMjUiIHkyPSIxMzMuODEyNSIvPjxsaW5lIHN0eWxlPSJzdHJva2U6IzE4MTgxODtzdHJva2Utd2lkdGg6MS4wOyIgeDE9IjI2LjUiIHgyPSIzNi41IiB5MT0iMTM3LjgxMjUiIHkyPSIxNDEuODEyNSIvPjxsaW5lIHN0eWxlPSJzdHJva2U6IzE4MTgxODtzdHJva2Utd2lkdGg6MS4wOyIgeDE9IjI1LjUiIHgyPSIyMDYuNSIgeTE9IjEzNy44MTI1IiB5Mj0iMTM3LjgxMjUiLz48dGV4dCBmaWxsPSIjMDAwMDAwIiBmb250LWZhbWlseT0ic2Fucy1zZXJpZiIgZm9udC1zaXplPSIxMyIgbGVuZ3RoQWRqdXN0PSJzcGFjaW5nIiB0ZXh0TGVuZ3RoPSIxMjEiIHg9IjQyLjUiIHk9IjEzNC4xODc1Ij5FbnRlciBkaXZlIGRldGFpbHM8L3RleHQ+PGxpbmUgc3R5bGU9InN0cm9rZTojMTgxODE4O3N0cm9rZS13aWR0aDoxLjA7IiB4MT0iMjA1LjUiIHgyPSIxOTUuNSIgeTE9IjE2NS43MjY2IiB5Mj0iMTYxLjcyNjYiLz48bGluZSBzdHlsZT0ic3Ryb2tlOiMxODE4MTg7c3Ryb2tlLXdpZHRoOjEuMDsiIHgxPSIyMDUuNSIgeDI9IjE5NS41IiB5MT0iMTY1LjcyNjYiIHkyPSIxNjkuNzI2NiIvPjxsaW5lIHN0eWxlPSJzdHJva2U6IzE4MTgxODtzdHJva2Utd2lkdGg6MS4wOyIgeDE9IjI1LjUiIHgyPSIyMDYuNSIgeTE9IjE2NS43MjY2IiB5Mj0iMTY1LjcyNjYiLz48dGV4dCBmaWxsPSIjMDAwMDAwIiBmb250LWZhbWlseT0ic2Fucy1zZXJpZiIgZm9udC1zaXplPSIxMyIgbGVuZ3RoQWRqdXN0PSJzcGFjaW5nIiB0ZXh0TGVuZ3RoPSI4MCIgeD0iMzIuNSIgeT0iMTYyLjEwMTYiPkRpdmUgZGV0YWlsczwvdGV4dD48bGluZSBzdHlsZT0ic3Ryb2tlOiMxODE4MTg7c3Ryb2tlLXdpZHRoOjEuMDsiIHgxPSIzNTgiIHgyPSIzNDgiIHkxPSIxOTMuNjQwNiIgeTI9IjE4OS42NDA2Ii8+PGxpbmUgc3R5bGU9InN0cm9rZTojMTgxODE4O3N0cm9rZS13aWR0aDoxLjA7IiB4MT0iMzU4IiB4Mj0iMzQ4IiB5MT0iMTkzLjY0MDYiIHkyPSIxOTcuNjQwNiIvPjxsaW5lIHN0eWxlPSJzdHJva2U6IzE4MTgxODtzdHJva2Utd2lkdGg6MS4wOyIgeDE9IjIxMi41IiB4Mj0iMzU5IiB5MT0iMTkzLjY0MDYiIHkyPSIxOTMuNjQwNiIvPjx0ZXh0IGZpbGw9IiMwMDAwMDAiIGZvbnQtZmFtaWx5PSJzYW5zLXNlcmlmIiBmb250LXNpemU9IjEzIiBsZW5ndGhBZGp1c3Q9InNwYWNpbmciIHRleHRMZW5ndGg9Ijk1IiB4PSIyMTkuNSIgeT0iMTkwLjAxNTYiPlN0b3JlIGRpdmUgbG9nPC90ZXh0PjxsaW5lIHN0eWxlPSJzdHJva2U6IzE4MTgxODtzdHJva2Utd2lkdGg6MS4wOyIgeDE9IjI2LjUiIHgyPSIzNi41IiB5MT0iMjIxLjU1NDciIHkyPSIyMTcuNTU0NyIvPjxsaW5lIHN0eWxlPSJzdHJva2U6IzE4MTgxODtzdHJva2Utd2lkdGg6MS4wOyIgeDE9IjI2LjUiIHgyPSIzNi41IiB5MT0iMjIxLjU1NDciIHkyPSIyMjUuNTU0NyIvPjxsaW5lIHN0eWxlPSJzdHJva2U6IzE4MTgxODtzdHJva2Utd2lkdGg6MS4wOyIgeDE9IjI1LjUiIHgyPSIyMTEuNSIgeTE9IjIyMS41NTQ3IiB5Mj0iMjIxLjU1NDciLz48dGV4dCBmaWxsPSIjMDAwMDAwIiBmb250LWZhbWlseT0ic2Fucy1zZXJpZiIgZm9udC1zaXplPSIxMyIgbGVuZ3RoQWRqdXN0PSJzcGFjaW5nIiB0ZXh0TGVuZ3RoPSIxNjMiIHg9IjQyLjUiIHk9IjIxNy45Mjk3Ij5EaXZlIGxvZ2dlZCBzdWNjZXNzZnVsbHk8L3RleHQ+PCEtLVNSQz1bZlAwbjNpOG0zNE50ZEM4TnUwOFBFZUtEZmZ4MDk5eWVLZmZLWUxrZmp3U0E3SDA0Q0ozd3dfX3RSUkVMTkNZNDVLTkROMkpPQzdFSWZibXZpU1U0OUVETTFURTd1UEF6T1U0UkxvWkw2QVRYdzJLcnhUT01LTW1iaDJwZURfSjRXcmFxZFBFV2FEaTdTWDBFaVZ2ZURVX01CLW9OR3BJRC1xVm1SOGRQQXVUX0xaTzduaURITlFuNWhWU2Jua3ExXS0tPjwvZz48L3N2Zz4=;" vertex="1" parent="1">
            <mxGeometry x="24" y="50" width="425" height="319" as="geometry" />
          </mxCell>
        </UserObject>
        <UserObject label="" plantUmlData="{&quot;data&quot;:&quot;@startuml\nactor Diver\nparticipant DiveManagementSystem\nparticipant UserDatabase\n\nDiver-&gt;&gt;DiveManagementSystem: Register\nactivate DiveManagementSystem\nDiveManagementSystem-&gt;&gt;Diver: Enter registration details\nDiver-&gt;&gt;DiveManagementSystem: Registration details\nDiveManagementSystem-&gt;&gt;UserDatabase: Store diver information\ndeactivate DiveManagementSystem\nDiveManagementSystem-&gt;&gt;Diver: Registration successful\n@enduml&quot;,&quot;format&quot;:&quot;svg&quot;}" id="wGYJW0pL6X7Hzjq0BeQI-2">
          <mxCell style="shape=image;noLabel=1;verticalAlign=top;aspect=fixed;imageAspect=0;image=data:image/svg+xml,PD94bWwgdmVyc2lvbj0iMS4wIiBlbmNvZGluZz0idXMtYXNjaWkiIHN0YW5kYWxvbmU9Im5vIj8+PHN2ZyB4bWxucz0iaHR0cDovL3d3dy53My5vcmcvMjAwMC9zdmciIHhtbG5zOnhsaW5rPSJodHRwOi8vd3d3LnczLm9yZy8xOTk5L3hsaW5rIiBjb250ZW50U3R5bGVUeXBlPSJ0ZXh0L2NzcyIgaGVpZ2h0PSIzMTlweCIgcHJlc2VydmVBc3BlY3RSYXRpbz0ibm9uZSIgc3R5bGU9IndpZHRoOjQ2NnB4O2hlaWdodDozMTlweDtiYWNrZ3JvdW5kOiNGRkZGRkY7IiB2ZXJzaW9uPSIxLjEiIHZpZXdCb3g9IjAgMCA0NjYgMzE5IiB3aWR0aD0iNDY2cHgiIHpvb21BbmRQYW49Im1hZ25pZnkiPjxkZWZzLz48Zz48cmVjdCBmaWxsPSIjRkZGRkZGIiBoZWlnaHQ9IjgzLjc0MjIiIHN0eWxlPSJzdHJva2U6IzE4MTgxODtzdHJva2Utd2lkdGg6MS4wOyIgd2lkdGg9IjEwIiB4PSIyMjMuNSIgeT0iMTA5Ljg5ODQiLz48bGluZSBzdHlsZT0ic3Ryb2tlOiMxODE4MTg7c3Ryb2tlLXdpZHRoOjAuNTtzdHJva2UtZGFzaGFycmF5OjUuMCw1LjA7IiB4MT0iMjUiIHgyPSIyNSIgeTE9Ijc5Ljk4NDQiIHkyPSIyMzkuNTU0NyIvPjxsaW5lIHN0eWxlPSJzdHJva2U6IzE4MTgxODtzdHJva2Utd2lkdGg6MC41O3N0cm9rZS1kYXNoYXJyYXk6NS4wLDUuMDsiIHgxPSIyMjguNSIgeDI9IjIyOC41IiB5MT0iNzkuOTg0NCIgeTI9IjIzOS41NTQ3Ii8+PGxpbmUgc3R5bGU9InN0cm9rZTojMTgxODE4O3N0cm9rZS13aWR0aDowLjU7c3Ryb2tlLWRhc2hhcnJheTo1LjAsNS4wOyIgeDE9IjQxMS41IiB4Mj0iNDExLjUiIHkxPSI3OS45ODQ0IiB5Mj0iMjM5LjU1NDciLz48dGV4dCBmaWxsPSIjMDAwMDAwIiBmb250LWZhbWlseT0ic2Fucy1zZXJpZiIgZm9udC1zaXplPSIxNCIgbGVuZ3RoQWRqdXN0PSJzcGFjaW5nIiB0ZXh0TGVuZ3RoPSIzNSIgeD0iNSIgeT0iNzguMjM0NCI+RGl2ZXI8L3RleHQ+PGVsbGlwc2UgY3g9IjI1LjUiIGN5PSIxMy41IiBmaWxsPSIjRTJFMkYwIiByeD0iOCIgcnk9IjgiIHN0eWxlPSJzdHJva2U6IzE4MTgxODtzdHJva2Utd2lkdGg6MC41OyIvPjxwYXRoIGQ9Ik0yNS41LDIxLjUgTDI1LjUsNDguNSBNMTIuNSwyOS41IEwzOC41LDI5LjUgTTI1LjUsNDguNSBMMTIuNSw2My41IE0yNS41LDQ4LjUgTDM4LjUsNjMuNSAiIGZpbGw9Im5vbmUiIHN0eWxlPSJzdHJva2U6IzE4MTgxODtzdHJva2Utd2lkdGg6MC41OyIvPjx0ZXh0IGZpbGw9IiMwMDAwMDAiIGZvbnQtZmFtaWx5PSJzYW5zLXNlcmlmIiBmb250LXNpemU9IjE0IiBsZW5ndGhBZGp1c3Q9InNwYWNpbmciIHRleHRMZW5ndGg9IjM1IiB4PSI1IiB5PSIyNTEuNzg5MSI+RGl2ZXI8L3RleHQ+PGVsbGlwc2UgY3g9IjI1LjUiIGN5PSIyNjIuMDM5MSIgZmlsbD0iI0UyRTJGMCIgcng9IjgiIHJ5PSI4IiBzdHlsZT0ic3Ryb2tlOiMxODE4MTg7c3Ryb2tlLXdpZHRoOjAuNTsiLz48cGF0aCBkPSJNMjUuNSwyNzAuMDM5MSBMMjUuNSwyOTcuMDM5MSBNMTIuNSwyNzguMDM5MSBMMzguNSwyNzguMDM5MSBNMjUuNSwyOTcuMDM5MSBMMTIuNSwzMTIuMDM5MSBNMjUuNSwyOTcuMDM5MSBMMzguNSwzMTIuMDM5MSAiIGZpbGw9Im5vbmUiIHN0eWxlPSJzdHJva2U6IzE4MTgxODtzdHJva2Utd2lkdGg6MC41OyIvPjxyZWN0IGZpbGw9IiNFMkUyRjAiIGhlaWdodD0iMjguOTg0NCIgcng9IjIuNSIgcnk9IjIuNSIgc3R5bGU9InN0cm9rZTojMTgxODE4O3N0cm9rZS13aWR0aDowLjU7IiB3aWR0aD0iMTU2IiB4PSIxNTAuNSIgeT0iNTAiLz48dGV4dCBmaWxsPSIjMDAwMDAwIiBmb250LWZhbWlseT0ic2Fucy1zZXJpZiIgZm9udC1zaXplPSIxNCIgbGVuZ3RoQWRqdXN0PSJzcGFjaW5nIiB0ZXh0TGVuZ3RoPSIxNDIiIHg9IjE1Ny41IiB5PSI3MC4yMzQ0Ij5EaXZlTWFuYWdlbWVudFN5c3RlbTwvdGV4dD48cmVjdCBmaWxsPSIjRTJFMkYwIiBoZWlnaHQ9IjI4Ljk4NDQiIHJ4PSIyLjUiIHJ5PSIyLjUiIHN0eWxlPSJzdHJva2U6IzE4MTgxODtzdHJva2Utd2lkdGg6MC41OyIgd2lkdGg9IjE1NiIgeD0iMTUwLjUiIHk9IjIzOC41NTQ3Ii8+PHRleHQgZmlsbD0iIzAwMDAwMCIgZm9udC1mYW1pbHk9InNhbnMtc2VyaWYiIGZvbnQtc2l6ZT0iMTQiIGxlbmd0aEFkanVzdD0ic3BhY2luZyIgdGV4dExlbmd0aD0iMTQyIiB4PSIxNTcuNSIgeT0iMjU4Ljc4OTEiPkRpdmVNYW5hZ2VtZW50U3lzdGVtPC90ZXh0PjxyZWN0IGZpbGw9IiNFMkUyRjAiIGhlaWdodD0iMjguOTg0NCIgcng9IjIuNSIgcnk9IjIuNSIgc3R5bGU9InN0cm9rZTojMTgxODE4O3N0cm9rZS13aWR0aDowLjU7IiB3aWR0aD0iOTgiIHg9IjM2Mi41IiB5PSI1MCIvPjx0ZXh0IGZpbGw9IiMwMDAwMDAiIGZvbnQtZmFtaWx5PSJzYW5zLXNlcmlmIiBmb250LXNpemU9IjE0IiBsZW5ndGhBZGp1c3Q9InNwYWNpbmciIHRleHRMZW5ndGg9Ijg0IiB4PSIzNjkuNSIgeT0iNzAuMjM0NCI+VXNlckRhdGFiYXNlPC90ZXh0PjxyZWN0IGZpbGw9IiNFMkUyRjAiIGhlaWdodD0iMjguOTg0NCIgcng9IjIuNSIgcnk9IjIuNSIgc3R5bGU9InN0cm9rZTojMTgxODE4O3N0cm9rZS13aWR0aDowLjU7IiB3aWR0aD0iOTgiIHg9IjM2Mi41IiB5PSIyMzguNTU0NyIvPjx0ZXh0IGZpbGw9IiMwMDAwMDAiIGZvbnQtZmFtaWx5PSJzYW5zLXNlcmlmIiBmb250LXNpemU9IjE0IiBsZW5ndGhBZGp1c3Q9InNwYWNpbmciIHRleHRMZW5ndGg9Ijg0IiB4PSIzNjkuNSIgeT0iMjU4Ljc4OTEiPlVzZXJEYXRhYmFzZTwvdGV4dD48cmVjdCBmaWxsPSIjRkZGRkZGIiBoZWlnaHQ9IjgzLjc0MjIiIHN0eWxlPSJzdHJva2U6IzE4MTgxODtzdHJva2Utd2lkdGg6MS4wOyIgd2lkdGg9IjEwIiB4PSIyMjMuNSIgeT0iMTA5Ljg5ODQiLz48bGluZSBzdHlsZT0ic3Ryb2tlOiMxODE4MTg7c3Ryb2tlLXdpZHRoOjEuMDsiIHgxPSIyMjEuNSIgeDI9IjIxMS41IiB5MT0iMTA5Ljg5ODQiIHkyPSIxMDUuODk4NCIvPjxsaW5lIHN0eWxlPSJzdHJva2U6IzE4MTgxODtzdHJva2Utd2lkdGg6MS4wOyIgeDE9IjIyMS41IiB4Mj0iMjExLjUiIHkxPSIxMDkuODk4NCIgeTI9IjExMy44OTg0Ii8+PGxpbmUgc3R5bGU9InN0cm9rZTojMTgxODE4O3N0cm9rZS13aWR0aDoxLjA7IiB4MT0iMjUuNSIgeDI9IjIyMi41IiB5MT0iMTA5Ljg5ODQiIHkyPSIxMDkuODk4NCIvPjx0ZXh0IGZpbGw9IiMwMDAwMDAiIGZvbnQtZmFtaWx5PSJzYW5zLXNlcmlmIiBmb250LXNpemU9IjEzIiBsZW5ndGhBZGp1c3Q9InNwYWNpbmciIHRleHRMZW5ndGg9IjU0IiB4PSIzMi41IiB5PSIxMDYuMjczNCI+UmVnaXN0ZXI8L3RleHQ+PGxpbmUgc3R5bGU9InN0cm9rZTojMTgxODE4O3N0cm9rZS13aWR0aDoxLjA7IiB4MT0iMjYuNSIgeDI9IjM2LjUiIHkxPSIxMzcuODEyNSIgeTI9IjEzMy44MTI1Ii8+PGxpbmUgc3R5bGU9InN0cm9rZTojMTgxODE4O3N0cm9rZS13aWR0aDoxLjA7IiB4MT0iMjYuNSIgeDI9IjM2LjUiIHkxPSIxMzcuODEyNSIgeTI9IjE0MS44MTI1Ii8+PGxpbmUgc3R5bGU9InN0cm9rZTojMTgxODE4O3N0cm9rZS13aWR0aDoxLjA7IiB4MT0iMjUuNSIgeDI9IjIyMi41IiB5MT0iMTM3LjgxMjUiIHkyPSIxMzcuODEyNSIvPjx0ZXh0IGZpbGw9IiMwMDAwMDAiIGZvbnQtZmFtaWx5PSJzYW5zLXNlcmlmIiBmb250LXNpemU9IjEzIiBsZW5ndGhBZGp1c3Q9InNwYWNpbmciIHRleHRMZW5ndGg9IjE3NCIgeD0iNDIuNSIgeT0iMTM0LjE4NzUiPkVudGVyIHJlZ2lzdHJhdGlvbiBkZXRhaWxzPC90ZXh0PjxsaW5lIHN0eWxlPSJzdHJva2U6IzE4MTgxODtzdHJva2Utd2lkdGg6MS4wOyIgeDE9IjIyMS41IiB4Mj0iMjExLjUiIHkxPSIxNjUuNzI2NiIgeTI9IjE2MS43MjY2Ii8+PGxpbmUgc3R5bGU9InN0cm9rZTojMTgxODE4O3N0cm9rZS13aWR0aDoxLjA7IiB4MT0iMjIxLjUiIHgyPSIyMTEuNSIgeTE9IjE2NS43MjY2IiB5Mj0iMTY5LjcyNjYiLz48bGluZSBzdHlsZT0ic3Ryb2tlOiMxODE4MTg7c3Ryb2tlLXdpZHRoOjEuMDsiIHgxPSIyNS41IiB4Mj0iMjIyLjUiIHkxPSIxNjUuNzI2NiIgeTI9IjE2NS43MjY2Ii8+PHRleHQgZmlsbD0iIzAwMDAwMCIgZm9udC1mYW1pbHk9InNhbnMtc2VyaWYiIGZvbnQtc2l6ZT0iMTMiIGxlbmd0aEFkanVzdD0ic3BhY2luZyIgdGV4dExlbmd0aD0iMTMzIiB4PSIzMi41IiB5PSIxNjIuMTAxNiI+UmVnaXN0cmF0aW9uIGRldGFpbHM8L3RleHQ+PGxpbmUgc3R5bGU9InN0cm9rZTojMTgxODE4O3N0cm9rZS13aWR0aDoxLjA7IiB4MT0iNDA5LjUiIHgyPSIzOTkuNSIgeTE9IjE5My42NDA2IiB5Mj0iMTg5LjY0MDYiLz48bGluZSBzdHlsZT0ic3Ryb2tlOiMxODE4MTg7c3Ryb2tlLXdpZHRoOjEuMDsiIHgxPSI0MDkuNSIgeDI9IjM5OS41IiB5MT0iMTkzLjY0MDYiIHkyPSIxOTcuNjQwNiIvPjxsaW5lIHN0eWxlPSJzdHJva2U6IzE4MTgxODtzdHJva2Utd2lkdGg6MS4wOyIgeDE9IjIyOC41IiB4Mj0iNDEwLjUiIHkxPSIxOTMuNjQwNiIgeTI9IjE5My42NDA2Ii8+PHRleHQgZmlsbD0iIzAwMDAwMCIgZm9udC1mYW1pbHk9InNhbnMtc2VyaWYiIGZvbnQtc2l6ZT0iMTMiIGxlbmd0aEFkanVzdD0ic3BhY2luZyIgdGV4dExlbmd0aD0iMTU0IiB4PSIyMzUuNSIgeT0iMTkwLjAxNTYiPlN0b3JlIGRpdmVyIGluZm9ybWF0aW9uPC90ZXh0PjxsaW5lIHN0eWxlPSJzdHJva2U6IzE4MTgxODtzdHJva2Utd2lkdGg6MS4wOyIgeDE9IjI2LjUiIHgyPSIzNi41IiB5MT0iMjIxLjU1NDciIHkyPSIyMTcuNTU0NyIvPjxsaW5lIHN0eWxlPSJzdHJva2U6IzE4MTgxODtzdHJva2Utd2lkdGg6MS4wOyIgeDE9IjI2LjUiIHgyPSIzNi41IiB5MT0iMjIxLjU1NDciIHkyPSIyMjUuNTU0NyIvPjxsaW5lIHN0eWxlPSJzdHJva2U6IzE4MTgxODtzdHJva2Utd2lkdGg6MS4wOyIgeDE9IjI1LjUiIHgyPSIyMjcuNSIgeTE9IjIyMS41NTQ3IiB5Mj0iMjIxLjU1NDciLz48dGV4dCBmaWxsPSIjMDAwMDAwIiBmb250LWZhbWlseT0ic2Fucy1zZXJpZiIgZm9udC1zaXplPSIxMyIgbGVuZ3RoQWRqdXN0PSJzcGFjaW5nIiB0ZXh0TGVuZ3RoPSIxNTUiIHg9IjQyLjUiIHk9IjIxNy45Mjk3Ij5SZWdpc3RyYXRpb24gc3VjY2Vzc2Z1bDwvdGV4dD48IS0tU1JDPVtmUDBuMmlDbTM0THRkcThOdzBLeVA0aDdCV3F6V0VlZUdIM1JHTDgybE5xVHF3NDEzdUxrdWdGX2xodW1NMVJlVUlUbkF1Zm51MU1KTFVNNjJNVUFiNm51Z0w0eUJKb0tmNFYzOW9ldkxtNk5oY2xQRkRuZnZaQTltczJ5ZXI0UnRuOF9KRjVtSk9LMEtiNjJuWmQxSThReXc0X2YzS2lad3hrTFh3N3lYYzB5d0MxZm9YOGhuOHRxSnY3SkZSZzVHQWhKamhtMV0tLT48L2c+PC9zdmc+;" vertex="1" parent="1">
            <mxGeometry x="460" y="50" width="466" height="319" as="geometry" />
          </mxCell>
        </UserObject>
        <UserObject label="" plantUmlData="{&quot;data&quot;:&quot;@startuml\nactor Diver\nparticipant DiveManagementSystem\nparticipant UserDatabase\n\nDiver-&gt;&gt;DiveManagementSystem: Register\nactivate DiveManagementSystem\nDiveManagementSystem-&gt;&gt;Diver: Enter registration details\nDiver-&gt;&gt;DiveManagementSystem: Registration details\nDiveManagementSystem-&gt;&gt;UserDatabase: Store diver information\ndeactivate DiveManagementSystem\nDiveManagementSystem-&gt;&gt;Diver: Registration successful\n@enduml&quot;,&quot;format&quot;:&quot;svg&quot;}" id="wGYJW0pL6X7Hzjq0BeQI-3">
          <mxCell style="shape=image;noLabel=1;verticalAlign=top;aspect=fixed;imageAspect=0;image=data:image/svg+xml,PD94bWwgdmVyc2lvbj0iMS4wIiBlbmNvZGluZz0idXMtYXNjaWkiIHN0YW5kYWxvbmU9Im5vIj8+PHN2ZyB4bWxucz0iaHR0cDovL3d3dy53My5vcmcvMjAwMC9zdmciIHhtbG5zOnhsaW5rPSJodHRwOi8vd3d3LnczLm9yZy8xOTk5L3hsaW5rIiBjb250ZW50U3R5bGVUeXBlPSJ0ZXh0L2NzcyIgaGVpZ2h0PSIzMTlweCIgcHJlc2VydmVBc3BlY3RSYXRpbz0ibm9uZSIgc3R5bGU9IndpZHRoOjQ2NnB4O2hlaWdodDozMTlweDtiYWNrZ3JvdW5kOiNGRkZGRkY7IiB2ZXJzaW9uPSIxLjEiIHZpZXdCb3g9IjAgMCA0NjYgMzE5IiB3aWR0aD0iNDY2cHgiIHpvb21BbmRQYW49Im1hZ25pZnkiPjxkZWZzLz48Zz48cmVjdCBmaWxsPSIjRkZGRkZGIiBoZWlnaHQ9IjgzLjc0MjIiIHN0eWxlPSJzdHJva2U6IzE4MTgxODtzdHJva2Utd2lkdGg6MS4wOyIgd2lkdGg9IjEwIiB4PSIyMjMuNSIgeT0iMTA5Ljg5ODQiLz48bGluZSBzdHlsZT0ic3Ryb2tlOiMxODE4MTg7c3Ryb2tlLXdpZHRoOjAuNTtzdHJva2UtZGFzaGFycmF5OjUuMCw1LjA7IiB4MT0iMjUiIHgyPSIyNSIgeTE9Ijc5Ljk4NDQiIHkyPSIyMzkuNTU0NyIvPjxsaW5lIHN0eWxlPSJzdHJva2U6IzE4MTgxODtzdHJva2Utd2lkdGg6MC41O3N0cm9rZS1kYXNoYXJyYXk6NS4wLDUuMDsiIHgxPSIyMjguNSIgeDI9IjIyOC41IiB5MT0iNzkuOTg0NCIgeTI9IjIzOS41NTQ3Ii8+PGxpbmUgc3R5bGU9InN0cm9rZTojMTgxODE4O3N0cm9rZS13aWR0aDowLjU7c3Ryb2tlLWRhc2hhcnJheTo1LjAsNS4wOyIgeDE9IjQxMS41IiB4Mj0iNDExLjUiIHkxPSI3OS45ODQ0IiB5Mj0iMjM5LjU1NDciLz48dGV4dCBmaWxsPSIjMDAwMDAwIiBmb250LWZhbWlseT0ic2Fucy1zZXJpZiIgZm9udC1zaXplPSIxNCIgbGVuZ3RoQWRqdXN0PSJzcGFjaW5nIiB0ZXh0TGVuZ3RoPSIzNSIgeD0iNSIgeT0iNzguMjM0NCI+RGl2ZXI8L3RleHQ+PGVsbGlwc2UgY3g9IjI1LjUiIGN5PSIxMy41IiBmaWxsPSIjRTJFMkYwIiByeD0iOCIgcnk9IjgiIHN0eWxlPSJzdHJva2U6IzE4MTgxODtzdHJva2Utd2lkdGg6MC41OyIvPjxwYXRoIGQ9Ik0yNS41LDIxLjUgTDI1LjUsNDguNSBNMTIuNSwyOS41IEwzOC41LDI5LjUgTTI1LjUsNDguNSBMMTIuNSw2My41IE0yNS41LDQ4LjUgTDM4LjUsNjMuNSAiIGZpbGw9Im5vbmUiIHN0eWxlPSJzdHJva2U6IzE4MTgxODtzdHJva2Utd2lkdGg6MC41OyIvPjx0ZXh0IGZpbGw9IiMwMDAwMDAiIGZvbnQtZmFtaWx5PSJzYW5zLXNlcmlmIiBmb250LXNpemU9IjE0IiBsZW5ndGhBZGp1c3Q9InNwYWNpbmciIHRleHRMZW5ndGg9IjM1IiB4PSI1IiB5PSIyNTEuNzg5MSI+RGl2ZXI8L3RleHQ+PGVsbGlwc2UgY3g9IjI1LjUiIGN5PSIyNjIuMDM5MSIgZmlsbD0iI0UyRTJGMCIgcng9IjgiIHJ5PSI4IiBzdHlsZT0ic3Ryb2tlOiMxODE4MTg7c3Ryb2tlLXdpZHRoOjAuNTsiLz48cGF0aCBkPSJNMjUuNSwyNzAuMDM5MSBMMjUuNSwyOTcuMDM5MSBNMTIuNSwyNzguMDM5MSBMMzguNSwyNzguMDM5MSBNMjUuNSwyOTcuMDM5MSBMMTIuNSwzMTIuMDM5MSBNMjUuNSwyOTcuMDM5MSBMMzguNSwzMTIuMDM5MSAiIGZpbGw9Im5vbmUiIHN0eWxlPSJzdHJva2U6IzE4MTgxODtzdHJva2Utd2lkdGg6MC41OyIvPjxyZWN0IGZpbGw9IiNFMkUyRjAiIGhlaWdodD0iMjguOTg0NCIgcng9IjIuNSIgcnk9IjIuNSIgc3R5bGU9InN0cm9rZTojMTgxODE4O3N0cm9rZS13aWR0aDowLjU7IiB3aWR0aD0iMTU2IiB4PSIxNTAuNSIgeT0iNTAiLz48dGV4dCBmaWxsPSIjMDAwMDAwIiBmb250LWZhbWlseT0ic2Fucy1zZXJpZiIgZm9udC1zaXplPSIxNCIgbGVuZ3RoQWRqdXN0PSJzcGFjaW5nIiB0ZXh0TGVuZ3RoPSIxNDIiIHg9IjE1Ny41IiB5PSI3MC4yMzQ0Ij5EaXZlTWFuYWdlbWVudFN5c3RlbTwvdGV4dD48cmVjdCBmaWxsPSIjRTJFMkYwIiBoZWlnaHQ9IjI4Ljk4NDQiIHJ4PSIyLjUiIHJ5PSIyLjUiIHN0eWxlPSJzdHJva2U6IzE4MTgxODtzdHJva2Utd2lkdGg6MC41OyIgd2lkdGg9IjE1NiIgeD0iMTUwLjUiIHk9IjIzOC41NTQ3Ii8+PHRleHQgZmlsbD0iIzAwMDAwMCIgZm9udC1mYW1pbHk9InNhbnMtc2VyaWYiIGZvbnQtc2l6ZT0iMTQiIGxlbmd0aEFkanVzdD0ic3BhY2luZyIgdGV4dExlbmd0aD0iMTQyIiB4PSIxNTcuNSIgeT0iMjU4Ljc4OTEiPkRpdmVNYW5hZ2VtZW50U3lzdGVtPC90ZXh0PjxyZWN0IGZpbGw9IiNFMkUyRjAiIGhlaWdodD0iMjguOTg0NCIgcng9IjIuNSIgcnk9IjIuNSIgc3R5bGU9InN0cm9rZTojMTgxODE4O3N0cm9rZS13aWR0aDowLjU7IiB3aWR0aD0iOTgiIHg9IjM2Mi41IiB5PSI1MCIvPjx0ZXh0IGZpbGw9IiMwMDAwMDAiIGZvbnQtZmFtaWx5PSJzYW5zLXNlcmlmIiBmb250LXNpemU9IjE0IiBsZW5ndGhBZGp1c3Q9InNwYWNpbmciIHRleHRMZW5ndGg9Ijg0IiB4PSIzNjkuNSIgeT0iNzAuMjM0NCI+VXNlckRhdGFiYXNlPC90ZXh0PjxyZWN0IGZpbGw9IiNFMkUyRjAiIGhlaWdodD0iMjguOTg0NCIgcng9IjIuNSIgcnk9IjIuNSIgc3R5bGU9InN0cm9rZTojMTgxODE4O3N0cm9rZS13aWR0aDowLjU7IiB3aWR0aD0iOTgiIHg9IjM2Mi41IiB5PSIyMzguNTU0NyIvPjx0ZXh0IGZpbGw9IiMwMDAwMDAiIGZvbnQtZmFtaWx5PSJzYW5zLXNlcmlmIiBmb250LXNpemU9IjE0IiBsZW5ndGhBZGp1c3Q9InNwYWNpbmciIHRleHRMZW5ndGg9Ijg0IiB4PSIzNjkuNSIgeT0iMjU4Ljc4OTEiPlVzZXJEYXRhYmFzZTwvdGV4dD48cmVjdCBmaWxsPSIjRkZGRkZGIiBoZWlnaHQ9IjgzLjc0MjIiIHN0eWxlPSJzdHJva2U6IzE4MTgxODtzdHJva2Utd2lkdGg6MS4wOyIgd2lkdGg9IjEwIiB4PSIyMjMuNSIgeT0iMTA5Ljg5ODQiLz48bGluZSBzdHlsZT0ic3Ryb2tlOiMxODE4MTg7c3Ryb2tlLXdpZHRoOjEuMDsiIHgxPSIyMjEuNSIgeDI9IjIxMS41IiB5MT0iMTA5Ljg5ODQiIHkyPSIxMDUuODk4NCIvPjxsaW5lIHN0eWxlPSJzdHJva2U6IzE4MTgxODtzdHJva2Utd2lkdGg6MS4wOyIgeDE9IjIyMS41IiB4Mj0iMjExLjUiIHkxPSIxMDkuODk4NCIgeTI9IjExMy44OTg0Ii8+PGxpbmUgc3R5bGU9InN0cm9rZTojMTgxODE4O3N0cm9rZS13aWR0aDoxLjA7IiB4MT0iMjUuNSIgeDI9IjIyMi41IiB5MT0iMTA5Ljg5ODQiIHkyPSIxMDkuODk4NCIvPjx0ZXh0IGZpbGw9IiMwMDAwMDAiIGZvbnQtZmFtaWx5PSJzYW5zLXNlcmlmIiBmb250LXNpemU9IjEzIiBsZW5ndGhBZGp1c3Q9InNwYWNpbmciIHRleHRMZW5ndGg9IjU0IiB4PSIzMi41IiB5PSIxMDYuMjczNCI+UmVnaXN0ZXI8L3RleHQ+PGxpbmUgc3R5bGU9InN0cm9rZTojMTgxODE4O3N0cm9rZS13aWR0aDoxLjA7IiB4MT0iMjYuNSIgeDI9IjM2LjUiIHkxPSIxMzcuODEyNSIgeTI9IjEzMy44MTI1Ii8+PGxpbmUgc3R5bGU9InN0cm9rZTojMTgxODE4O3N0cm9rZS13aWR0aDoxLjA7IiB4MT0iMjYuNSIgeDI9IjM2LjUiIHkxPSIxMzcuODEyNSIgeTI9IjE0MS44MTI1Ii8+PGxpbmUgc3R5bGU9InN0cm9rZTojMTgxODE4O3N0cm9rZS13aWR0aDoxLjA7IiB4MT0iMjUuNSIgeDI9IjIyMi41IiB5MT0iMTM3LjgxMjUiIHkyPSIxMzcuODEyNSIvPjx0ZXh0IGZpbGw9IiMwMDAwMDAiIGZvbnQtZmFtaWx5PSJzYW5zLXNlcmlmIiBmb250LXNpemU9IjEzIiBsZW5ndGhBZGp1c3Q9InNwYWNpbmciIHRleHRMZW5ndGg9IjE3NCIgeD0iNDIuNSIgeT0iMTM0LjE4NzUiPkVudGVyIHJlZ2lzdHJhdGlvbiBkZXRhaWxzPC90ZXh0PjxsaW5lIHN0eWxlPSJzdHJva2U6IzE4MTgxODtzdHJva2Utd2lkdGg6MS4wOyIgeDE9IjIyMS41IiB4Mj0iMjExLjUiIHkxPSIxNjUuNzI2NiIgeTI9IjE2MS43MjY2Ii8+PGxpbmUgc3R5bGU9InN0cm9rZTojMTgxODE4O3N0cm9rZS13aWR0aDoxLjA7IiB4MT0iMjIxLjUiIHgyPSIyMTEuNSIgeTE9IjE2NS43MjY2IiB5Mj0iMTY5LjcyNjYiLz48bGluZSBzdHlsZT0ic3Ryb2tlOiMxODE4MTg7c3Ryb2tlLXdpZHRoOjEuMDsiIHgxPSIyNS41IiB4Mj0iMjIyLjUiIHkxPSIxNjUuNzI2NiIgeTI9IjE2NS43MjY2Ii8+PHRleHQgZmlsbD0iIzAwMDAwMCIgZm9udC1mYW1pbHk9InNhbnMtc2VyaWYiIGZvbnQtc2l6ZT0iMTMiIGxlbmd0aEFkanVzdD0ic3BhY2luZyIgdGV4dExlbmd0aD0iMTMzIiB4PSIzMi41IiB5PSIxNjIuMTAxNiI+UmVnaXN0cmF0aW9uIGRldGFpbHM8L3RleHQ+PGxpbmUgc3R5bGU9InN0cm9rZTojMTgxODE4O3N0cm9rZS13aWR0aDoxLjA7IiB4MT0iNDA5LjUiIHgyPSIzOTkuNSIgeTE9IjE5My42NDA2IiB5Mj0iMTg5LjY0MDYiLz48bGluZSBzdHlsZT0ic3Ryb2tlOiMxODE4MTg7c3Ryb2tlLXdpZHRoOjEuMDsiIHgxPSI0MDkuNSIgeDI9IjM5OS41IiB5MT0iMTkzLjY0MDYiIHkyPSIxOTcuNjQwNiIvPjxsaW5lIHN0eWxlPSJzdHJva2U6IzE4MTgxODtzdHJva2Utd2lkdGg6MS4wOyIgeDE9IjIyOC41IiB4Mj0iNDEwLjUiIHkxPSIxOTMuNjQwNiIgeTI9IjE5My42NDA2Ii8+PHRleHQgZmlsbD0iIzAwMDAwMCIgZm9udC1mYW1pbHk9InNhbnMtc2VyaWYiIGZvbnQtc2l6ZT0iMTMiIGxlbmd0aEFkanVzdD0ic3BhY2luZyIgdGV4dExlbmd0aD0iMTU0IiB4PSIyMzUuNSIgeT0iMTkwLjAxNTYiPlN0b3JlIGRpdmVyIGluZm9ybWF0aW9uPC90ZXh0PjxsaW5lIHN0eWxlPSJzdHJva2U6IzE4MTgxODtzdHJva2Utd2lkdGg6MS4wOyIgeDE9IjI2LjUiIHgyPSIzNi41IiB5MT0iMjIxLjU1NDciIHkyPSIyMTcuNTU0NyIvPjxsaW5lIHN0eWxlPSJzdHJva2U6IzE4MTgxODtzdHJva2Utd2lkdGg6MS4wOyIgeDE9IjI2LjUiIHgyPSIzNi41IiB5MT0iMjIxLjU1NDciIHkyPSIyMjUuNTU0NyIvPjxsaW5lIHN0eWxlPSJzdHJva2U6IzE4MTgxODtzdHJva2Utd2lkdGg6MS4wOyIgeDE9IjI1LjUiIHgyPSIyMjcuNSIgeTE9IjIyMS41NTQ3IiB5Mj0iMjIxLjU1NDciLz48dGV4dCBmaWxsPSIjMDAwMDAwIiBmb250LWZhbWlseT0ic2Fucy1zZXJpZiIgZm9udC1zaXplPSIxMyIgbGVuZ3RoQWRqdXN0PSJzcGFjaW5nIiB0ZXh0TGVuZ3RoPSIxNTUiIHg9IjQyLjUiIHk9IjIxNy45Mjk3Ij5SZWdpc3RyYXRpb24gc3VjY2Vzc2Z1bDwvdGV4dD48IS0tU1JDPVtmUDBuMmlDbTM0THRkcThOdzBLeVA0aDdCV3F6V0VlZUdIM1JHTDgybE5xVHF3NDEzdUxrdWdGX2xodW1NMVJlVUlUbkF1Zm51MU1KTFVNNjJNVUFiNm51Z0w0eUJKb0tmNFYzOW9ldkxtNk5oY2xQRkRuZnZaQTltczJ5ZXI0UnRuOF9KRjVtSk9LMEtiNjJuWmQxSThReXc0X2YzS2lad3hrTFh3N3lYYzB5d0MxZm9YOGhuOHRxSnY3SkZSZzVHQWhKamhtMV0tLT48L2c+PC9zdmc+;" vertex="1" parent="1">
            <mxGeometry x="24" y="390" width="466" height="319" as="geometry" />
          </mxCell>
        </UserObject>
        <UserObject label="" plantUmlData="{&quot;data&quot;:&quot;@startuml\nactor Diver\nparticipant DiveManagementSystem\nparticipant EquipmentDatabase\n\nDiver-&gt;&gt;DiveManagementSystem: Manage Equipment\nactivate DiveManagementSystem\nDiveManagementSystem-&gt;&gt;Diver: Choose action (add, edit, delete)\nDiver-&gt;&gt;DiveManagementSystem: Action and equipment details\nDiveManagementSystem-&gt;&gt;EquipmentDatabase: Update equipment information\ndeactivate DiveManagementSystem\nDiveManagementSystem-&gt;&gt;Diver: Equipment managed successfully\n@enduml&quot;,&quot;format&quot;:&quot;svg&quot;}" id="wGYJW0pL6X7Hzjq0BeQI-4">
          <mxCell style="shape=image;noLabel=1;verticalAlign=top;aspect=fixed;imageAspect=0;image=data:image/svg+xml,PD94bWwgdmVyc2lvbj0iMS4wIiBlbmNvZGluZz0idXMtYXNjaWkiIHN0YW5kYWxvbmU9Im5vIj8+PHN2ZyB4bWxucz0iaHR0cDovL3d3dy53My5vcmcvMjAwMC9zdmciIHhtbG5zOnhsaW5rPSJodHRwOi8vd3d3LnczLm9yZy8xOTk5L3hsaW5rIiBjb250ZW50U3R5bGVUeXBlPSJ0ZXh0L2NzcyIgaGVpZ2h0PSIzMTlweCIgcHJlc2VydmVBc3BlY3RSYXRpbz0ibm9uZSIgc3R5bGU9IndpZHRoOjU2NHB4O2hlaWdodDozMTlweDtiYWNrZ3JvdW5kOiNGRkZGRkY7IiB2ZXJzaW9uPSIxLjEiIHZpZXdCb3g9IjAgMCA1NjQgMzE5IiB3aWR0aD0iNTY0cHgiIHpvb21BbmRQYW49Im1hZ25pZnkiPjxkZWZzLz48Zz48cmVjdCBmaWxsPSIjRkZGRkZGIiBoZWlnaHQ9IjgzLjc0MjIiIHN0eWxlPSJzdHJva2U6IzE4MTgxODtzdHJva2Utd2lkdGg6MS4wOyIgd2lkdGg9IjEwIiB4PSIyNzAuNSIgeT0iMTA5Ljg5ODQiLz48bGluZSBzdHlsZT0ic3Ryb2tlOiMxODE4MTg7c3Ryb2tlLXdpZHRoOjAuNTtzdHJva2UtZGFzaGFycmF5OjUuMCw1LjA7IiB4MT0iMjUiIHgyPSIyNSIgeTE9Ijc5Ljk4NDQiIHkyPSIyMzkuNTU0NyIvPjxsaW5lIHN0eWxlPSJzdHJva2U6IzE4MTgxODtzdHJva2Utd2lkdGg6MC41O3N0cm9rZS1kYXNoYXJyYXk6NS4wLDUuMDsiIHgxPSIyNzUuNSIgeDI9IjI3NS41IiB5MT0iNzkuOTg0NCIgeTI9IjIzOS41NTQ3Ii8+PGxpbmUgc3R5bGU9InN0cm9rZTojMTgxODE4O3N0cm9rZS13aWR0aDowLjU7c3Ryb2tlLWRhc2hhcnJheTo1LjAsNS4wOyIgeDE9IjQ5MS41IiB4Mj0iNDkxLjUiIHkxPSI3OS45ODQ0IiB5Mj0iMjM5LjU1NDciLz48dGV4dCBmaWxsPSIjMDAwMDAwIiBmb250LWZhbWlseT0ic2Fucy1zZXJpZiIgZm9udC1zaXplPSIxNCIgbGVuZ3RoQWRqdXN0PSJzcGFjaW5nIiB0ZXh0TGVuZ3RoPSIzNSIgeD0iNSIgeT0iNzguMjM0NCI+RGl2ZXI8L3RleHQ+PGVsbGlwc2UgY3g9IjI1LjUiIGN5PSIxMy41IiBmaWxsPSIjRTJFMkYwIiByeD0iOCIgcnk9IjgiIHN0eWxlPSJzdHJva2U6IzE4MTgxODtzdHJva2Utd2lkdGg6MC41OyIvPjxwYXRoIGQ9Ik0yNS41LDIxLjUgTDI1LjUsNDguNSBNMTIuNSwyOS41IEwzOC41LDI5LjUgTTI1LjUsNDguNSBMMTIuNSw2My41IE0yNS41LDQ4LjUgTDM4LjUsNjMuNSAiIGZpbGw9Im5vbmUiIHN0eWxlPSJzdHJva2U6IzE4MTgxODtzdHJva2Utd2lkdGg6MC41OyIvPjx0ZXh0IGZpbGw9IiMwMDAwMDAiIGZvbnQtZmFtaWx5PSJzYW5zLXNlcmlmIiBmb250LXNpemU9IjE0IiBsZW5ndGhBZGp1c3Q9InNwYWNpbmciIHRleHRMZW5ndGg9IjM1IiB4PSI1IiB5PSIyNTEuNzg5MSI+RGl2ZXI8L3RleHQ+PGVsbGlwc2UgY3g9IjI1LjUiIGN5PSIyNjIuMDM5MSIgZmlsbD0iI0UyRTJGMCIgcng9IjgiIHJ5PSI4IiBzdHlsZT0ic3Ryb2tlOiMxODE4MTg7c3Ryb2tlLXdpZHRoOjAuNTsiLz48cGF0aCBkPSJNMjUuNSwyNzAuMDM5MSBMMjUuNSwyOTcuMDM5MSBNMTIuNSwyNzguMDM5MSBMMzguNSwyNzguMDM5MSBNMjUuNSwyOTcuMDM5MSBMMTIuNSwzMTIuMDM5MSBNMjUuNSwyOTcuMDM5MSBMMzguNSwzMTIuMDM5MSAiIGZpbGw9Im5vbmUiIHN0eWxlPSJzdHJva2U6IzE4MTgxODtzdHJva2Utd2lkdGg6MC41OyIvPjxyZWN0IGZpbGw9IiNFMkUyRjAiIGhlaWdodD0iMjguOTg0NCIgcng9IjIuNSIgcnk9IjIuNSIgc3R5bGU9InN0cm9rZTojMTgxODE4O3N0cm9rZS13aWR0aDowLjU7IiB3aWR0aD0iMTU2IiB4PSIxOTcuNSIgeT0iNTAiLz48dGV4dCBmaWxsPSIjMDAwMDAwIiBmb250LWZhbWlseT0ic2Fucy1zZXJpZiIgZm9udC1zaXplPSIxNCIgbGVuZ3RoQWRqdXN0PSJzcGFjaW5nIiB0ZXh0TGVuZ3RoPSIxNDIiIHg9IjIwNC41IiB5PSI3MC4yMzQ0Ij5EaXZlTWFuYWdlbWVudFN5c3RlbTwvdGV4dD48cmVjdCBmaWxsPSIjRTJFMkYwIiBoZWlnaHQ9IjI4Ljk4NDQiIHJ4PSIyLjUiIHJ5PSIyLjUiIHN0eWxlPSJzdHJva2U6IzE4MTgxODtzdHJva2Utd2lkdGg6MC41OyIgd2lkdGg9IjE1NiIgeD0iMTk3LjUiIHk9IjIzOC41NTQ3Ii8+PHRleHQgZmlsbD0iIzAwMDAwMCIgZm9udC1mYW1pbHk9InNhbnMtc2VyaWYiIGZvbnQtc2l6ZT0iMTQiIGxlbmd0aEFkanVzdD0ic3BhY2luZyIgdGV4dExlbmd0aD0iMTQyIiB4PSIyMDQuNSIgeT0iMjU4Ljc4OTEiPkRpdmVNYW5hZ2VtZW50U3lzdGVtPC90ZXh0PjxyZWN0IGZpbGw9IiNFMkUyRjAiIGhlaWdodD0iMjguOTg0NCIgcng9IjIuNSIgcnk9IjIuNSIgc3R5bGU9InN0cm9rZTojMTgxODE4O3N0cm9rZS13aWR0aDowLjU7IiB3aWR0aD0iMTM0IiB4PSI0MjQuNSIgeT0iNTAiLz48dGV4dCBmaWxsPSIjMDAwMDAwIiBmb250LWZhbWlseT0ic2Fucy1zZXJpZiIgZm9udC1zaXplPSIxNCIgbGVuZ3RoQWRqdXN0PSJzcGFjaW5nIiB0ZXh0TGVuZ3RoPSIxMjAiIHg9IjQzMS41IiB5PSI3MC4yMzQ0Ij5FcXVpcG1lbnREYXRhYmFzZTwvdGV4dD48cmVjdCBmaWxsPSIjRTJFMkYwIiBoZWlnaHQ9IjI4Ljk4NDQiIHJ4PSIyLjUiIHJ5PSIyLjUiIHN0eWxlPSJzdHJva2U6IzE4MTgxODtzdHJva2Utd2lkdGg6MC41OyIgd2lkdGg9IjEzNCIgeD0iNDI0LjUiIHk9IjIzOC41NTQ3Ii8+PHRleHQgZmlsbD0iIzAwMDAwMCIgZm9udC1mYW1pbHk9InNhbnMtc2VyaWYiIGZvbnQtc2l6ZT0iMTQiIGxlbmd0aEFkanVzdD0ic3BhY2luZyIgdGV4dExlbmd0aD0iMTIwIiB4PSI0MzEuNSIgeT0iMjU4Ljc4OTEiPkVxdWlwbWVudERhdGFiYXNlPC90ZXh0PjxyZWN0IGZpbGw9IiNGRkZGRkYiIGhlaWdodD0iODMuNzQyMiIgc3R5bGU9InN0cm9rZTojMTgxODE4O3N0cm9rZS13aWR0aDoxLjA7IiB3aWR0aD0iMTAiIHg9IjI3MC41IiB5PSIxMDkuODk4NCIvPjxsaW5lIHN0eWxlPSJzdHJva2U6IzE4MTgxODtzdHJva2Utd2lkdGg6MS4wOyIgeDE9IjI2OC41IiB4Mj0iMjU4LjUiIHkxPSIxMDkuODk4NCIgeTI9IjEwNS44OTg0Ii8+PGxpbmUgc3R5bGU9InN0cm9rZTojMTgxODE4O3N0cm9rZS13aWR0aDoxLjA7IiB4MT0iMjY4LjUiIHgyPSIyNTguNSIgeTE9IjEwOS44OTg0IiB5Mj0iMTEzLjg5ODQiLz48bGluZSBzdHlsZT0ic3Ryb2tlOiMxODE4MTg7c3Ryb2tlLXdpZHRoOjEuMDsiIHgxPSIyNS41IiB4Mj0iMjY5LjUiIHkxPSIxMDkuODk4NCIgeTI9IjEwOS44OTg0Ii8+PHRleHQgZmlsbD0iIzAwMDAwMCIgZm9udC1mYW1pbHk9InNhbnMtc2VyaWYiIGZvbnQtc2l6ZT0iMTMiIGxlbmd0aEFkanVzdD0ic3BhY2luZyIgdGV4dExlbmd0aD0iMTA5IiB4PSIzMi41IiB5PSIxMDYuMjczNCI+TWFuYWdlIEVxdWlwbWVudDwvdGV4dD48bGluZSBzdHlsZT0ic3Ryb2tlOiMxODE4MTg7c3Ryb2tlLXdpZHRoOjEuMDsiIHgxPSIyNi41IiB4Mj0iMzYuNSIgeTE9IjEzNy44MTI1IiB5Mj0iMTMzLjgxMjUiLz48bGluZSBzdHlsZT0ic3Ryb2tlOiMxODE4MTg7c3Ryb2tlLXdpZHRoOjEuMDsiIHgxPSIyNi41IiB4Mj0iMzYuNSIgeTE9IjEzNy44MTI1IiB5Mj0iMTQxLjgxMjUiLz48bGluZSBzdHlsZT0ic3Ryb2tlOiMxODE4MTg7c3Ryb2tlLXdpZHRoOjEuMDsiIHgxPSIyNS41IiB4Mj0iMjY5LjUiIHkxPSIxMzcuODEyNSIgeTI9IjEzNy44MTI1Ii8+PHRleHQgZmlsbD0iIzAwMDAwMCIgZm9udC1mYW1pbHk9InNhbnMtc2VyaWYiIGZvbnQtc2l6ZT0iMTMiIGxlbmd0aEFkanVzdD0ic3BhY2luZyIgdGV4dExlbmd0aD0iMjIxIiB4PSI0Mi41IiB5PSIxMzQuMTg3NSI+Q2hvb3NlIGFjdGlvbiAoYWRkLCBlZGl0LCBkZWxldGUpPC90ZXh0PjxsaW5lIHN0eWxlPSJzdHJva2U6IzE4MTgxODtzdHJva2Utd2lkdGg6MS4wOyIgeDE9IjI2OC41IiB4Mj0iMjU4LjUiIHkxPSIxNjUuNzI2NiIgeTI9IjE2MS43MjY2Ii8+PGxpbmUgc3R5bGU9InN0cm9rZTojMTgxODE4O3N0cm9rZS13aWR0aDoxLjA7IiB4MT0iMjY4LjUiIHgyPSIyNTguNSIgeTE9IjE2NS43MjY2IiB5Mj0iMTY5LjcyNjYiLz48bGluZSBzdHlsZT0ic3Ryb2tlOiMxODE4MTg7c3Ryb2tlLXdpZHRoOjEuMDsiIHgxPSIyNS41IiB4Mj0iMjY5LjUiIHkxPSIxNjUuNzI2NiIgeTI9IjE2NS43MjY2Ii8+PHRleHQgZmlsbD0iIzAwMDAwMCIgZm9udC1mYW1pbHk9InNhbnMtc2VyaWYiIGZvbnQtc2l6ZT0iMTMiIGxlbmd0aEFkanVzdD0ic3BhY2luZyIgdGV4dExlbmd0aD0iMTg4IiB4PSIzMi41IiB5PSIxNjIuMTAxNiI+QWN0aW9uIGFuZCBlcXVpcG1lbnQgZGV0YWlsczwvdGV4dD48bGluZSBzdHlsZT0ic3Ryb2tlOiMxODE4MTg7c3Ryb2tlLXdpZHRoOjEuMDsiIHgxPSI0ODkuNSIgeDI9IjQ3OS41IiB5MT0iMTkzLjY0MDYiIHkyPSIxODkuNjQwNiIvPjxsaW5lIHN0eWxlPSJzdHJva2U6IzE4MTgxODtzdHJva2Utd2lkdGg6MS4wOyIgeDE9IjQ4OS41IiB4Mj0iNDc5LjUiIHkxPSIxOTMuNjQwNiIgeTI9IjE5Ny42NDA2Ii8+PGxpbmUgc3R5bGU9InN0cm9rZTojMTgxODE4O3N0cm9rZS13aWR0aDoxLjA7IiB4MT0iMjc1LjUiIHgyPSI0OTAuNSIgeTE9IjE5My42NDA2IiB5Mj0iMTkzLjY0MDYiLz48dGV4dCBmaWxsPSIjMDAwMDAwIiBmb250LWZhbWlseT0ic2Fucy1zZXJpZiIgZm9udC1zaXplPSIxMyIgbGVuZ3RoQWRqdXN0PSJzcGFjaW5nIiB0ZXh0TGVuZ3RoPSIxODciIHg9IjI4Mi41IiB5PSIxOTAuMDE1NiI+VXBkYXRlIGVxdWlwbWVudCBpbmZvcm1hdGlvbjwvdGV4dD48bGluZSBzdHlsZT0ic3Ryb2tlOiMxODE4MTg7c3Ryb2tlLXdpZHRoOjEuMDsiIHgxPSIyNi41IiB4Mj0iMzYuNSIgeTE9IjIyMS41NTQ3IiB5Mj0iMjE3LjU1NDciLz48bGluZSBzdHlsZT0ic3Ryb2tlOiMxODE4MTg7c3Ryb2tlLXdpZHRoOjEuMDsiIHgxPSIyNi41IiB4Mj0iMzYuNSIgeTE9IjIyMS41NTQ3IiB5Mj0iMjI1LjU1NDciLz48bGluZSBzdHlsZT0ic3Ryb2tlOiMxODE4MTg7c3Ryb2tlLXdpZHRoOjEuMDsiIHgxPSIyNS41IiB4Mj0iMjc0LjUiIHkxPSIyMjEuNTU0NyIgeTI9IjIyMS41NTQ3Ii8+PHRleHQgZmlsbD0iIzAwMDAwMCIgZm9udC1mYW1pbHk9InNhbnMtc2VyaWYiIGZvbnQtc2l6ZT0iMTMiIGxlbmd0aEFkanVzdD0ic3BhY2luZyIgdGV4dExlbmd0aD0iMjAzIiB4PSI0Mi41IiB5PSIyMTcuOTI5NyI+RXF1aXBtZW50IG1hbmFnZWQgc3VjY2Vzc2Z1bGx5PC90ZXh0PjwhLS1TUkM9W2ZPLXozaThtMzhKdEY4TDdhQ2VCVEFZNFc5NDl5RzBjU1M1SXlxRllMa2hSR3JnV0dYR25pOXZ6dHpzWDVYelhvbnI1NUowQVFteGVQNTNzd0YxQ2JmbVMtWUhhdG52c3J2UDNsY3JIeThJOWIxZWVnd2dReXZPbUFmREZlSFJrSzZXLVFxdnlpNkM5Y3VsdFlJMFpsOEM1NmJDMDZQTzIzM0thakZuSFBacVFxSGNXUHc2eExQMlJ6MnR3T3Q0OW5zM29XMGQxaGxSSE9lT2hHX3lpVkFNMTdOdUNmNVBoSWdia2N3UV8wRzAwXS0tPjwvZz48L3N2Zz4=;" vertex="1" parent="1">
            <mxGeometry x="510" y="390" width="564" height="319" as="geometry" />
          </mxCell>
        </UserObject>
        <UserObject label="" plantUmlData="{&quot;data&quot;:&quot;@startuml\nactor Diver\nparticipant DiveManagementSystem\nparticipant CertificationDatabase\n\nDiver-&gt;&gt;DiveManagementSystem: Certify Dives\nactivate DiveManagementSystem\nDiveManagementSystem-&gt;&gt;Diver: Enter certification details\nDiver-&gt;&gt;DiveManagementSystem: Certification details\nDiveManagementSystem-&gt;&gt;CertificationDatabase: Store certification information\ndeactivate DiveManagementSystem\nDiveManagementSystem-&gt;&gt;Diver: Certification recorded successfully\n@enduml&quot;,&quot;format&quot;:&quot;svg&quot;}" id="wGYJW0pL6X7Hzjq0BeQI-5">
          <mxCell style="shape=image;noLabel=1;verticalAlign=top;aspect=fixed;imageAspect=0;image=data:image/svg+xml,PD94bWwgdmVyc2lvbj0iMS4wIiBlbmNvZGluZz0idXMtYXNjaWkiIHN0YW5kYWxvbmU9Im5vIj8+PHN2ZyB4bWxucz0iaHR0cDovL3d3dy53My5vcmcvMjAwMC9zdmciIHhtbG5zOnhsaW5rPSJodHRwOi8vd3d3LnczLm9yZy8xOTk5L3hsaW5rIiBjb250ZW50U3R5bGVUeXBlPSJ0ZXh0L2NzcyIgaGVpZ2h0PSIzMTlweCIgcHJlc2VydmVBc3BlY3RSYXRpbz0ibm9uZSIgc3R5bGU9IndpZHRoOjYwNnB4O2hlaWdodDozMTlweDtiYWNrZ3JvdW5kOiNGRkZGRkY7IiB2ZXJzaW9uPSIxLjEiIHZpZXdCb3g9IjAgMCA2MDYgMzE5IiB3aWR0aD0iNjA2cHgiIHpvb21BbmRQYW49Im1hZ25pZnkiPjxkZWZzLz48Zz48cmVjdCBmaWxsPSIjRkZGRkZGIiBoZWlnaHQ9IjgzLjc0MjIiIHN0eWxlPSJzdHJva2U6IzE4MTgxODtzdHJva2Utd2lkdGg6MS4wOyIgd2lkdGg9IjEwIiB4PSIyODAuNSIgeT0iMTA5Ljg5ODQiLz48bGluZSBzdHlsZT0ic3Ryb2tlOiMxODE4MTg7c3Ryb2tlLXdpZHRoOjAuNTtzdHJva2UtZGFzaGFycmF5OjUuMCw1LjA7IiB4MT0iMjUiIHgyPSIyNSIgeTE9Ijc5Ljk4NDQiIHkyPSIyMzkuNTU0NyIvPjxsaW5lIHN0eWxlPSJzdHJva2U6IzE4MTgxODtzdHJva2Utd2lkdGg6MC41O3N0cm9rZS1kYXNoYXJyYXk6NS4wLDUuMDsiIHgxPSIyODUuNSIgeDI9IjI4NS41IiB5MT0iNzkuOTg0NCIgeTI9IjIzOS41NTQ3Ii8+PGxpbmUgc3R5bGU9InN0cm9rZTojMTgxODE4O3N0cm9rZS13aWR0aDowLjU7c3Ryb2tlLWRhc2hhcnJheTo1LjAsNS4wOyIgeDE9IjUxOSIgeDI9IjUxOSIgeTE9Ijc5Ljk4NDQiIHkyPSIyMzkuNTU0NyIvPjx0ZXh0IGZpbGw9IiMwMDAwMDAiIGZvbnQtZmFtaWx5PSJzYW5zLXNlcmlmIiBmb250LXNpemU9IjE0IiBsZW5ndGhBZGp1c3Q9InNwYWNpbmciIHRleHRMZW5ndGg9IjM1IiB4PSI1IiB5PSI3OC4yMzQ0Ij5EaXZlcjwvdGV4dD48ZWxsaXBzZSBjeD0iMjUuNSIgY3k9IjEzLjUiIGZpbGw9IiNFMkUyRjAiIHJ4PSI4IiByeT0iOCIgc3R5bGU9InN0cm9rZTojMTgxODE4O3N0cm9rZS13aWR0aDowLjU7Ii8+PHBhdGggZD0iTTI1LjUsMjEuNSBMMjUuNSw0OC41IE0xMi41LDI5LjUgTDM4LjUsMjkuNSBNMjUuNSw0OC41IEwxMi41LDYzLjUgTTI1LjUsNDguNSBMMzguNSw2My41ICIgZmlsbD0ibm9uZSIgc3R5bGU9InN0cm9rZTojMTgxODE4O3N0cm9rZS13aWR0aDowLjU7Ii8+PHRleHQgZmlsbD0iIzAwMDAwMCIgZm9udC1mYW1pbHk9InNhbnMtc2VyaWYiIGZvbnQtc2l6ZT0iMTQiIGxlbmd0aEFkanVzdD0ic3BhY2luZyIgdGV4dExlbmd0aD0iMzUiIHg9IjUiIHk9IjI1MS43ODkxIj5EaXZlcjwvdGV4dD48ZWxsaXBzZSBjeD0iMjUuNSIgY3k9IjI2Mi4wMzkxIiBmaWxsPSIjRTJFMkYwIiByeD0iOCIgcnk9IjgiIHN0eWxlPSJzdHJva2U6IzE4MTgxODtzdHJva2Utd2lkdGg6MC41OyIvPjxwYXRoIGQ9Ik0yNS41LDI3MC4wMzkxIEwyNS41LDI5Ny4wMzkxIE0xMi41LDI3OC4wMzkxIEwzOC41LDI3OC4wMzkxIE0yNS41LDI5Ny4wMzkxIEwxMi41LDMxMi4wMzkxIE0yNS41LDI5Ny4wMzkxIEwzOC41LDMxMi4wMzkxICIgZmlsbD0ibm9uZSIgc3R5bGU9InN0cm9rZTojMTgxODE4O3N0cm9rZS13aWR0aDowLjU7Ii8+PHJlY3QgZmlsbD0iI0UyRTJGMCIgaGVpZ2h0PSIyOC45ODQ0IiByeD0iMi41IiByeT0iMi41IiBzdHlsZT0ic3Ryb2tlOiMxODE4MTg7c3Ryb2tlLXdpZHRoOjAuNTsiIHdpZHRoPSIxNTYiIHg9IjIwNy41IiB5PSI1MCIvPjx0ZXh0IGZpbGw9IiMwMDAwMDAiIGZvbnQtZmFtaWx5PSJzYW5zLXNlcmlmIiBmb250LXNpemU9IjE0IiBsZW5ndGhBZGp1c3Q9InNwYWNpbmciIHRleHRMZW5ndGg9IjE0MiIgeD0iMjE0LjUiIHk9IjcwLjIzNDQiPkRpdmVNYW5hZ2VtZW50U3lzdGVtPC90ZXh0PjxyZWN0IGZpbGw9IiNFMkUyRjAiIGhlaWdodD0iMjguOTg0NCIgcng9IjIuNSIgcnk9IjIuNSIgc3R5bGU9InN0cm9rZTojMTgxODE4O3N0cm9rZS13aWR0aDowLjU7IiB3aWR0aD0iMTU2IiB4PSIyMDcuNSIgeT0iMjM4LjU1NDciLz48dGV4dCBmaWxsPSIjMDAwMDAwIiBmb250LWZhbWlseT0ic2Fucy1zZXJpZiIgZm9udC1zaXplPSIxNCIgbGVuZ3RoQWRqdXN0PSJzcGFjaW5nIiB0ZXh0TGVuZ3RoPSIxNDIiIHg9IjIxNC41IiB5PSIyNTguNzg5MSI+RGl2ZU1hbmFnZW1lbnRTeXN0ZW08L3RleHQ+PHJlY3QgZmlsbD0iI0UyRTJGMCIgaGVpZ2h0PSIyOC45ODQ0IiByeD0iMi41IiByeT0iMi41IiBzdHlsZT0ic3Ryb2tlOiMxODE4MTg7c3Ryb2tlLXdpZHRoOjAuNTsiIHdpZHRoPSIxNjEiIHg9IjQzOSIgeT0iNTAiLz48dGV4dCBmaWxsPSIjMDAwMDAwIiBmb250LWZhbWlseT0ic2Fucy1zZXJpZiIgZm9udC1zaXplPSIxNCIgbGVuZ3RoQWRqdXN0PSJzcGFjaW5nIiB0ZXh0TGVuZ3RoPSIxNDciIHg9IjQ0NiIgeT0iNzAuMjM0NCI+Q2VydGlmaWNhdGlvbkRhdGFiYXNlPC90ZXh0PjxyZWN0IGZpbGw9IiNFMkUyRjAiIGhlaWdodD0iMjguOTg0NCIgcng9IjIuNSIgcnk9IjIuNSIgc3R5bGU9InN0cm9rZTojMTgxODE4O3N0cm9rZS13aWR0aDowLjU7IiB3aWR0aD0iMTYxIiB4PSI0MzkiIHk9IjIzOC41NTQ3Ii8+PHRleHQgZmlsbD0iIzAwMDAwMCIgZm9udC1mYW1pbHk9InNhbnMtc2VyaWYiIGZvbnQtc2l6ZT0iMTQiIGxlbmd0aEFkanVzdD0ic3BhY2luZyIgdGV4dExlbmd0aD0iMTQ3IiB4PSI0NDYiIHk9IjI1OC43ODkxIj5DZXJ0aWZpY2F0aW9uRGF0YWJhc2U8L3RleHQ+PHJlY3QgZmlsbD0iI0ZGRkZGRiIgaGVpZ2h0PSI4My43NDIyIiBzdHlsZT0ic3Ryb2tlOiMxODE4MTg7c3Ryb2tlLXdpZHRoOjEuMDsiIHdpZHRoPSIxMCIgeD0iMjgwLjUiIHk9IjEwOS44OTg0Ii8+PGxpbmUgc3R5bGU9InN0cm9rZTojMTgxODE4O3N0cm9rZS13aWR0aDoxLjA7IiB4MT0iMjc4LjUiIHgyPSIyNjguNSIgeTE9IjEwOS44OTg0IiB5Mj0iMTA1Ljg5ODQiLz48bGluZSBzdHlsZT0ic3Ryb2tlOiMxODE4MTg7c3Ryb2tlLXdpZHRoOjEuMDsiIHgxPSIyNzguNSIgeDI9IjI2OC41IiB5MT0iMTA5Ljg5ODQiIHkyPSIxMTMuODk4NCIvPjxsaW5lIHN0eWxlPSJzdHJva2U6IzE4MTgxODtzdHJva2Utd2lkdGg6MS4wOyIgeDE9IjI1LjUiIHgyPSIyNzkuNSIgeTE9IjEwOS44OTg0IiB5Mj0iMTA5Ljg5ODQiLz48dGV4dCBmaWxsPSIjMDAwMDAwIiBmb250LWZhbWlseT0ic2Fucy1zZXJpZiIgZm9udC1zaXplPSIxMyIgbGVuZ3RoQWRqdXN0PSJzcGFjaW5nIiB0ZXh0TGVuZ3RoPSI4NyIgeD0iMzIuNSIgeT0iMTA2LjI3MzQiPkNlcnRpZnkgRGl2ZXM8L3RleHQ+PGxpbmUgc3R5bGU9InN0cm9rZTojMTgxODE4O3N0cm9rZS13aWR0aDoxLjA7IiB4MT0iMjYuNSIgeDI9IjM2LjUiIHkxPSIxMzcuODEyNSIgeTI9IjEzMy44MTI1Ii8+PGxpbmUgc3R5bGU9InN0cm9rZTojMTgxODE4O3N0cm9rZS13aWR0aDoxLjA7IiB4MT0iMjYuNSIgeDI9IjM2LjUiIHkxPSIxMzcuODEyNSIgeTI9IjE0MS44MTI1Ii8+PGxpbmUgc3R5bGU9InN0cm9rZTojMTgxODE4O3N0cm9rZS13aWR0aDoxLjA7IiB4MT0iMjUuNSIgeDI9IjI3OS41IiB5MT0iMTM3LjgxMjUiIHkyPSIxMzcuODEyNSIvPjx0ZXh0IGZpbGw9IiMwMDAwMDAiIGZvbnQtZmFtaWx5PSJzYW5zLXNlcmlmIiBmb250LXNpemU9IjEzIiBsZW5ndGhBZGp1c3Q9InNwYWNpbmciIHRleHRMZW5ndGg9IjE3OSIgeD0iNDIuNSIgeT0iMTM0LjE4NzUiPkVudGVyIGNlcnRpZmljYXRpb24gZGV0YWlsczwvdGV4dD48bGluZSBzdHlsZT0ic3Ryb2tlOiMxODE4MTg7c3Ryb2tlLXdpZHRoOjEuMDsiIHgxPSIyNzguNSIgeDI9IjI2OC41IiB5MT0iMTY1LjcyNjYiIHkyPSIxNjEuNzI2NiIvPjxsaW5lIHN0eWxlPSJzdHJva2U6IzE4MTgxODtzdHJva2Utd2lkdGg6MS4wOyIgeDE9IjI3OC41IiB4Mj0iMjY4LjUiIHkxPSIxNjUuNzI2NiIgeTI9IjE2OS43MjY2Ii8+PGxpbmUgc3R5bGU9InN0cm9rZTojMTgxODE4O3N0cm9rZS13aWR0aDoxLjA7IiB4MT0iMjUuNSIgeDI9IjI3OS41IiB5MT0iMTY1LjcyNjYiIHkyPSIxNjUuNzI2NiIvPjx0ZXh0IGZpbGw9IiMwMDAwMDAiIGZvbnQtZmFtaWx5PSJzYW5zLXNlcmlmIiBmb250LXNpemU9IjEzIiBsZW5ndGhBZGp1c3Q9InNwYWNpbmciIHRleHRMZW5ndGg9IjEzOCIgeD0iMzIuNSIgeT0iMTYyLjEwMTYiPkNlcnRpZmljYXRpb24gZGV0YWlsczwvdGV4dD48bGluZSBzdHlsZT0ic3Ryb2tlOiMxODE4MTg7c3Ryb2tlLXdpZHRoOjEuMDsiIHgxPSI1MTcuNSIgeDI9IjUwNy41IiB5MT0iMTkzLjY0MDYiIHkyPSIxODkuNjQwNiIvPjxsaW5lIHN0eWxlPSJzdHJva2U6IzE4MTgxODtzdHJva2Utd2lkdGg6MS4wOyIgeDE9IjUxNy41IiB4Mj0iNTA3LjUiIHkxPSIxOTMuNjQwNiIgeTI9IjE5Ny42NDA2Ii8+PGxpbmUgc3R5bGU9InN0cm9rZTojMTgxODE4O3N0cm9rZS13aWR0aDoxLjA7IiB4MT0iMjg1LjUiIHgyPSI1MTguNSIgeTE9IjE5My42NDA2IiB5Mj0iMTkzLjY0MDYiLz48dGV4dCBmaWxsPSIjMDAwMDAwIiBmb250LWZhbWlseT0ic2Fucy1zZXJpZiIgZm9udC1zaXplPSIxMyIgbGVuZ3RoQWRqdXN0PSJzcGFjaW5nIiB0ZXh0TGVuZ3RoPSIyMDUiIHg9IjI5Mi41IiB5PSIxOTAuMDE1NiI+U3RvcmUgY2VydGlmaWNhdGlvbiBpbmZvcm1hdGlvbjwvdGV4dD48bGluZSBzdHlsZT0ic3Ryb2tlOiMxODE4MTg7c3Ryb2tlLXdpZHRoOjEuMDsiIHgxPSIyNi41IiB4Mj0iMzYuNSIgeTE9IjIyMS41NTQ3IiB5Mj0iMjE3LjU1NDciLz48bGluZSBzdHlsZT0ic3Ryb2tlOiMxODE4MTg7c3Ryb2tlLXdpZHRoOjEuMDsiIHgxPSIyNi41IiB4Mj0iMzYuNSIgeTE9IjIyMS41NTQ3IiB5Mj0iMjI1LjU1NDciLz48bGluZSBzdHlsZT0ic3Ryb2tlOiMxODE4MTg7c3Ryb2tlLXdpZHRoOjEuMDsiIHgxPSIyNS41IiB4Mj0iMjg0LjUiIHkxPSIyMjEuNTU0NyIgeTI9IjIyMS41NTQ3Ii8+PHRleHQgZmlsbD0iIzAwMDAwMCIgZm9udC1mYW1pbHk9InNhbnMtc2VyaWYiIGZvbnQtc2l6ZT0iMTMiIGxlbmd0aEFkanVzdD0ic3BhY2luZyIgdGV4dExlbmd0aD0iMjM2IiB4PSI0Mi41IiB5PSIyMTcuOTI5NyI+Q2VydGlmaWNhdGlvbiByZWNvcmRlZCBzdWNjZXNzZnVsbHk8L3RleHQ+PCEtLVNSQz1bZkwweDNlQ20zRHJwWWJvVzVzMVdBSHF4U0dCTlVMSU04NDZFR1VCc0hINDNMMWFnVE5qd3lsa1BzOUJ3SmJRZWNxYkRNNlFBTGZXZEhOZlpHaEgtb3VSZlNkMzdaV1RYQ2Fjbjh3Q05QSlhOZDZ2ak16Q3RYc1doeGphSGN3bmFnOFZMb0NETzZfLTgxbEx5Qms0M1o2SkNGdE1lUUlmZnJQTUR4X1VkdUlqVHVmMXFBalc1X0JGanNiMzFJR0UycG1pcFNYd01TVG0tXS0tPjwvZz48L3N2Zz4=;" vertex="1" parent="1">
            <mxGeometry x="24" y="720" width="606" height="319" as="geometry" />
          </mxCell>
        </UserObject>
        <UserObject label="" plantUmlData="{&quot;data&quot;:&quot;@startuml\nactor DiveClub\nparticipant DiveManagementSystem\nparticipant DiveSiteDatabase\n\nDiveClub-&gt;&gt;DiveManagementSystem: Manage Dive Sites\nactivate DiveManagementSystem\nDiveManagementSystem-&gt;&gt;DiveClub: Choose action (add, edit, delete)\nDiveClub-&gt;&gt;DiveManagementSystem: Action and dive site details\nDiveManagementSystem-&gt;&gt;DiveSiteDatabase: Update dive site information\ndeactivate DiveManagementSystem\nDiveManagementSystem-&gt;&gt;DiveClub: Dive sites managed successfully\n@enduml@startuml\nactor DiveClub\nparticipant DiveManagementSystem\nparticipant DiveSiteDatabase\n\nDiveClub-&gt;&gt;DiveManagementSystem: Manage Dive Sites\nactivate DiveManagementSystem\nDiveManagementSystem-&gt;&gt;DiveClub: Choose action (add, edit, delete)\nDiveClub-&gt;&gt;DiveManagementSystem: Action and dive site details\nDiveManagementSystem-&gt;&gt;DiveSiteDatabase: Update dive site information\ndeactivate DiveManagementSystem\nDiveManagementSystem-&gt;&gt;DiveClub: Dive sites managed successfully\n@enduml&quot;,&quot;format&quot;:&quot;svg&quot;}" id="wGYJW0pL6X7Hzjq0BeQI-6">
          <mxCell style="shape=image;noLabel=1;verticalAlign=top;aspect=fixed;imageAspect=0;image=data:image/svg+xml,PD94bWwgdmVyc2lvbj0iMS4wIiBlbmNvZGluZz0idXMtYXNjaWkiIHN0YW5kYWxvbmU9Im5vIj8+PHN2ZyB4bWxucz0iaHR0cDovL3d3dy53My5vcmcvMjAwMC9zdmciIHhtbG5zOnhsaW5rPSJodHRwOi8vd3d3LnczLm9yZy8xOTk5L3hsaW5rIiBjb250ZW50U3R5bGVUeXBlPSJ0ZXh0L2NzcyIgaGVpZ2h0PSI0NThweCIgcHJlc2VydmVBc3BlY3RSYXRpbz0ibm9uZSIgc3R5bGU9IndpZHRoOjU3MXB4O2hlaWdodDo0NThweDtiYWNrZ3JvdW5kOiNGRkZGRkY7IiB2ZXJzaW9uPSIxLjEiIHZpZXdCb3g9IjAgMCA1NzEgNDU4IiB3aWR0aD0iNTcxcHgiIHpvb21BbmRQYW49Im1hZ25pZnkiPjxkZWZzLz48Zz48cmVjdCBmaWxsPSIjRkZGRkZGIiBoZWlnaHQ9IjgzLjc0MjIiIHN0eWxlPSJzdHJva2U6IzE4MTgxODtzdHJva2Utd2lkdGg6MS4wOyIgd2lkdGg9IjEwIiB4PSIyODEiIHk9IjEwOS44OTg0Ii8+PHJlY3QgZmlsbD0iI0ZGRkZGRiIgaGVpZ2h0PSI4My43NDIyIiBzdHlsZT0ic3Ryb2tlOiMxODE4MTg7c3Ryb2tlLXdpZHRoOjEuMDsiIHdpZHRoPSIxMCIgeD0iMjgxIiB5PSIyNDkuNDY4OCIvPjxsaW5lIHN0eWxlPSJzdHJva2U6IzE4MTgxODtzdHJva2Utd2lkdGg6MC41O3N0cm9rZS1kYXNoYXJyYXk6NS4wLDUuMDsiIHgxPSIzNiIgeDI9IjM2IiB5MT0iNzkuOTg0NCIgeTI9IjM3OS4xMjUiLz48bGluZSBzdHlsZT0ic3Ryb2tlOiMxODE4MTg7c3Ryb2tlLXdpZHRoOjAuNTtzdHJva2UtZGFzaGFycmF5OjUuMCw1LjA7IiB4MT0iMjg2IiB4Mj0iMjg2IiB5MT0iNzkuOTg0NCIgeTI9IjM3OS4xMjUiLz48bGluZSBzdHlsZT0ic3Ryb2tlOiMxODE4MTg7c3Ryb2tlLXdpZHRoOjAuNTtzdHJva2UtZGFzaGFycmF5OjUuMCw1LjA7IiB4MT0iNTAyIiB4Mj0iNTAyIiB5MT0iNzkuOTg0NCIgeTI9IjM3OS4xMjUiLz48dGV4dCBmaWxsPSIjMDAwMDAwIiBmb250LWZhbWlseT0ic2Fucy1zZXJpZiIgZm9udC1zaXplPSIxNCIgbGVuZ3RoQWRqdXN0PSJzcGFjaW5nIiB0ZXh0TGVuZ3RoPSI1NiIgeD0iNSIgeT0iNzguMjM0NCI+RGl2ZUNsdWI8L3RleHQ+PGVsbGlwc2UgY3g9IjM2IiBjeT0iMTMuNSIgZmlsbD0iI0UyRTJGMCIgcng9IjgiIHJ5PSI4IiBzdHlsZT0ic3Ryb2tlOiMxODE4MTg7c3Ryb2tlLXdpZHRoOjAuNTsiLz48cGF0aCBkPSJNMzYsMjEuNSBMMzYsNDguNSBNMjMsMjkuNSBMNDksMjkuNSBNMzYsNDguNSBMMjMsNjMuNSBNMzYsNDguNSBMNDksNjMuNSAiIGZpbGw9Im5vbmUiIHN0eWxlPSJzdHJva2U6IzE4MTgxODtzdHJva2Utd2lkdGg6MC41OyIvPjx0ZXh0IGZpbGw9IiMwMDAwMDAiIGZvbnQtZmFtaWx5PSJzYW5zLXNlcmlmIiBmb250LXNpemU9IjE0IiBsZW5ndGhBZGp1c3Q9InNwYWNpbmciIHRleHRMZW5ndGg9IjU2IiB4PSI1IiB5PSIzOTEuMzU5NCI+RGl2ZUNsdWI8L3RleHQ+PGVsbGlwc2UgY3g9IjM2IiBjeT0iNDAxLjYwOTQiIGZpbGw9IiNFMkUyRjAiIHJ4PSI4IiByeT0iOCIgc3R5bGU9InN0cm9rZTojMTgxODE4O3N0cm9rZS13aWR0aDowLjU7Ii8+PHBhdGggZD0iTTM2LDQwOS42MDk0IEwzNiw0MzYuNjA5NCBNMjMsNDE3LjYwOTQgTDQ5LDQxNy42MDk0IE0zNiw0MzYuNjA5NCBMMjMsNDUxLjYwOTQgTTM2LDQzNi42MDk0IEw0OSw0NTEuNjA5NCAiIGZpbGw9Im5vbmUiIHN0eWxlPSJzdHJva2U6IzE4MTgxODtzdHJva2Utd2lkdGg6MC41OyIvPjxyZWN0IGZpbGw9IiNFMkUyRjAiIGhlaWdodD0iMjguOTg0NCIgcng9IjIuNSIgcnk9IjIuNSIgc3R5bGU9InN0cm9rZTojMTgxODE4O3N0cm9rZS13aWR0aDowLjU7IiB3aWR0aD0iMTU2IiB4PSIyMDgiIHk9IjUwIi8+PHRleHQgZmlsbD0iIzAwMDAwMCIgZm9udC1mYW1pbHk9InNhbnMtc2VyaWYiIGZvbnQtc2l6ZT0iMTQiIGxlbmd0aEFkanVzdD0ic3BhY2luZyIgdGV4dExlbmd0aD0iMTQyIiB4PSIyMTUiIHk9IjcwLjIzNDQiPkRpdmVNYW5hZ2VtZW50U3lzdGVtPC90ZXh0PjxyZWN0IGZpbGw9IiNFMkUyRjAiIGhlaWdodD0iMjguOTg0NCIgcng9IjIuNSIgcnk9IjIuNSIgc3R5bGU9InN0cm9rZTojMTgxODE4O3N0cm9rZS13aWR0aDowLjU7IiB3aWR0aD0iMTU2IiB4PSIyMDgiIHk9IjM3OC4xMjUiLz48dGV4dCBmaWxsPSIjMDAwMDAwIiBmb250LWZhbWlseT0ic2Fucy1zZXJpZiIgZm9udC1zaXplPSIxNCIgbGVuZ3RoQWRqdXN0PSJzcGFjaW5nIiB0ZXh0TGVuZ3RoPSIxNDIiIHg9IjIxNSIgeT0iMzk4LjM1OTQiPkRpdmVNYW5hZ2VtZW50U3lzdGVtPC90ZXh0PjxyZWN0IGZpbGw9IiNFMkUyRjAiIGhlaWdodD0iMjguOTg0NCIgcng9IjIuNSIgcnk9IjIuNSIgc3R5bGU9InN0cm9rZTojMTgxODE4O3N0cm9rZS13aWR0aDowLjU7IiB3aWR0aD0iMTI2IiB4PSI0MzkiIHk9IjUwIi8+PHRleHQgZmlsbD0iIzAwMDAwMCIgZm9udC1mYW1pbHk9InNhbnMtc2VyaWYiIGZvbnQtc2l6ZT0iMTQiIGxlbmd0aEFkanVzdD0ic3BhY2luZyIgdGV4dExlbmd0aD0iMTEyIiB4PSI0NDYiIHk9IjcwLjIzNDQiPkRpdmVTaXRlRGF0YWJhc2U8L3RleHQ+PHJlY3QgZmlsbD0iI0UyRTJGMCIgaGVpZ2h0PSIyOC45ODQ0IiByeD0iMi41IiByeT0iMi41IiBzdHlsZT0ic3Ryb2tlOiMxODE4MTg7c3Ryb2tlLXdpZHRoOjAuNTsiIHdpZHRoPSIxMjYiIHg9IjQzOSIgeT0iMzc4LjEyNSIvPjx0ZXh0IGZpbGw9IiMwMDAwMDAiIGZvbnQtZmFtaWx5PSJzYW5zLXNlcmlmIiBmb250LXNpemU9IjE0IiBsZW5ndGhBZGp1c3Q9InNwYWNpbmciIHRleHRMZW5ndGg9IjExMiIgeD0iNDQ2IiB5PSIzOTguMzU5NCI+RGl2ZVNpdGVEYXRhYmFzZTwvdGV4dD48cmVjdCBmaWxsPSIjRkZGRkZGIiBoZWlnaHQ9IjgzLjc0MjIiIHN0eWxlPSJzdHJva2U6IzE4MTgxODtzdHJva2Utd2lkdGg6MS4wOyIgd2lkdGg9IjEwIiB4PSIyODEiIHk9IjEwOS44OTg0Ii8+PHJlY3QgZmlsbD0iI0ZGRkZGRiIgaGVpZ2h0PSI4My43NDIyIiBzdHlsZT0ic3Ryb2tlOiMxODE4MTg7c3Ryb2tlLXdpZHRoOjEuMDsiIHdpZHRoPSIxMCIgeD0iMjgxIiB5PSIyNDkuNDY4OCIvPjxsaW5lIHN0eWxlPSJzdHJva2U6IzE4MTgxODtzdHJva2Utd2lkdGg6MS4wOyIgeDE9IjI3OSIgeDI9IjI2OSIgeTE9IjEwOS44OTg0IiB5Mj0iMTA1Ljg5ODQiLz48bGluZSBzdHlsZT0ic3Ryb2tlOiMxODE4MTg7c3Ryb2tlLXdpZHRoOjEuMDsiIHgxPSIyNzkiIHgyPSIyNjkiIHkxPSIxMDkuODk4NCIgeTI9IjExMy44OTg0Ii8+PGxpbmUgc3R5bGU9InN0cm9rZTojMTgxODE4O3N0cm9rZS13aWR0aDoxLjA7IiB4MT0iMzYiIHgyPSIyODAiIHkxPSIxMDkuODk4NCIgeTI9IjEwOS44OTg0Ii8+PHRleHQgZmlsbD0iIzAwMDAwMCIgZm9udC1mYW1pbHk9InNhbnMtc2VyaWYiIGZvbnQtc2l6ZT0iMTMiIGxlbmd0aEFkanVzdD0ic3BhY2luZyIgdGV4dExlbmd0aD0iMTE2IiB4PSI0MyIgeT0iMTA2LjI3MzQiPk1hbmFnZSBEaXZlIFNpdGVzPC90ZXh0PjxsaW5lIHN0eWxlPSJzdHJva2U6IzE4MTgxODtzdHJva2Utd2lkdGg6MS4wOyIgeDE9IjM3IiB4Mj0iNDciIHkxPSIxMzcuODEyNSIgeTI9IjEzMy44MTI1Ii8+PGxpbmUgc3R5bGU9InN0cm9rZTojMTgxODE4O3N0cm9rZS13aWR0aDoxLjA7IiB4MT0iMzciIHgyPSI0NyIgeTE9IjEzNy44MTI1IiB5Mj0iMTQxLjgxMjUiLz48bGluZSBzdHlsZT0ic3Ryb2tlOiMxODE4MTg7c3Ryb2tlLXdpZHRoOjEuMDsiIHgxPSIzNiIgeDI9IjI4MCIgeTE9IjEzNy44MTI1IiB5Mj0iMTM3LjgxMjUiLz48dGV4dCBmaWxsPSIjMDAwMDAwIiBmb250LWZhbWlseT0ic2Fucy1zZXJpZiIgZm9udC1zaXplPSIxMyIgbGVuZ3RoQWRqdXN0PSJzcGFjaW5nIiB0ZXh0TGVuZ3RoPSIyMjEiIHg9IjUzIiB5PSIxMzQuMTg3NSI+Q2hvb3NlIGFjdGlvbiAoYWRkLCBlZGl0LCBkZWxldGUpPC90ZXh0PjxsaW5lIHN0eWxlPSJzdHJva2U6IzE4MTgxODtzdHJva2Utd2lkdGg6MS4wOyIgeDE9IjI3OSIgeDI9IjI2OSIgeTE9IjE2NS43MjY2IiB5Mj0iMTYxLjcyNjYiLz48bGluZSBzdHlsZT0ic3Ryb2tlOiMxODE4MTg7c3Ryb2tlLXdpZHRoOjEuMDsiIHgxPSIyNzkiIHgyPSIyNjkiIHkxPSIxNjUuNzI2NiIgeTI9IjE2OS43MjY2Ii8+PGxpbmUgc3R5bGU9InN0cm9rZTojMTgxODE4O3N0cm9rZS13aWR0aDoxLjA7IiB4MT0iMzYiIHgyPSIyODAiIHkxPSIxNjUuNzI2NiIgeTI9IjE2NS43MjY2Ii8+PHRleHQgZmlsbD0iIzAwMDAwMCIgZm9udC1mYW1pbHk9InNhbnMtc2VyaWYiIGZvbnQtc2l6ZT0iMTMiIGxlbmd0aEFkanVzdD0ic3BhY2luZyIgdGV4dExlbmd0aD0iMTg4IiB4PSI0MyIgeT0iMTYyLjEwMTYiPkFjdGlvbiBhbmQgZGl2ZSBzaXRlIGRldGFpbHM8L3RleHQ+PGxpbmUgc3R5bGU9InN0cm9rZTojMTgxODE4O3N0cm9rZS13aWR0aDoxLjA7IiB4MT0iNTAwIiB4Mj0iNDkwIiB5MT0iMTkzLjY0MDYiIHkyPSIxODkuNjQwNiIvPjxsaW5lIHN0eWxlPSJzdHJva2U6IzE4MTgxODtzdHJva2Utd2lkdGg6MS4wOyIgeDE9IjUwMCIgeDI9IjQ5MCIgeTE9IjE5My42NDA2IiB5Mj0iMTk3LjY0MDYiLz48bGluZSBzdHlsZT0ic3Ryb2tlOiMxODE4MTg7c3Ryb2tlLXdpZHRoOjEuMDsiIHgxPSIyODYiIHgyPSI1MDEiIHkxPSIxOTMuNjQwNiIgeTI9IjE5My42NDA2Ii8+PHRleHQgZmlsbD0iIzAwMDAwMCIgZm9udC1mYW1pbHk9InNhbnMtc2VyaWYiIGZvbnQtc2l6ZT0iMTMiIGxlbmd0aEFkanVzdD0ic3BhY2luZyIgdGV4dExlbmd0aD0iMTg3IiB4PSIyOTMiIHk9IjE5MC4wMTU2Ij5VcGRhdGUgZGl2ZSBzaXRlIGluZm9ybWF0aW9uPC90ZXh0PjxsaW5lIHN0eWxlPSJzdHJva2U6IzE4MTgxODtzdHJva2Utd2lkdGg6MS4wOyIgeDE9IjM3IiB4Mj0iNDciIHkxPSIyMjEuNTU0NyIgeTI9IjIxNy41NTQ3Ii8+PGxpbmUgc3R5bGU9InN0cm9rZTojMTgxODE4O3N0cm9rZS13aWR0aDoxLjA7IiB4MT0iMzciIHgyPSI0NyIgeTE9IjIyMS41NTQ3IiB5Mj0iMjI1LjU1NDciLz48bGluZSBzdHlsZT0ic3Ryb2tlOiMxODE4MTg7c3Ryb2tlLXdpZHRoOjEuMDsiIHgxPSIzNiIgeDI9IjI4NSIgeTE9IjIyMS41NTQ3IiB5Mj0iMjIxLjU1NDciLz48dGV4dCBmaWxsPSIjMDAwMDAwIiBmb250LWZhbWlseT0ic2Fucy1zZXJpZiIgZm9udC1zaXplPSIxMyIgbGVuZ3RoQWRqdXN0PSJzcGFjaW5nIiB0ZXh0TGVuZ3RoPSIyMTAiIHg9IjUzIiB5PSIyMTcuOTI5NyI+RGl2ZSBzaXRlcyBtYW5hZ2VkIHN1Y2Nlc3NmdWxseTwvdGV4dD48bGluZSBzdHlsZT0ic3Ryb2tlOiMxODE4MTg7c3Ryb2tlLXdpZHRoOjEuMDsiIHgxPSIyNzkiIHgyPSIyNjkiIHkxPSIyNDkuNDY4OCIgeTI9IjI0NS40Njg4Ii8+PGxpbmUgc3R5bGU9InN0cm9rZTojMTgxODE4O3N0cm9rZS13aWR0aDoxLjA7IiB4MT0iMjc5IiB4Mj0iMjY5IiB5MT0iMjQ5LjQ2ODgiIHkyPSIyNTMuNDY4OCIvPjxsaW5lIHN0eWxlPSJzdHJva2U6IzE4MTgxODtzdHJva2Utd2lkdGg6MS4wOyIgeDE9IjM2IiB4Mj0iMjgwIiB5MT0iMjQ5LjQ2ODgiIHkyPSIyNDkuNDY4OCIvPjx0ZXh0IGZpbGw9IiMwMDAwMDAiIGZvbnQtZmFtaWx5PSJzYW5zLXNlcmlmIiBmb250LXNpemU9IjEzIiBsZW5ndGhBZGp1c3Q9InNwYWNpbmciIHRleHRMZW5ndGg9IjExNiIgeD0iNDMiIHk9IjI0NS44NDM4Ij5NYW5hZ2UgRGl2ZSBTaXRlczwvdGV4dD48bGluZSBzdHlsZT0ic3Ryb2tlOiMxODE4MTg7c3Ryb2tlLXdpZHRoOjEuMDsiIHgxPSIzNyIgeDI9IjQ3IiB5MT0iMjc3LjM4MjgiIHkyPSIyNzMuMzgyOCIvPjxsaW5lIHN0eWxlPSJzdHJva2U6IzE4MTgxODtzdHJva2Utd2lkdGg6MS4wOyIgeDE9IjM3IiB4Mj0iNDciIHkxPSIyNzcuMzgyOCIgeTI9IjI4MS4zODI4Ii8+PGxpbmUgc3R5bGU9InN0cm9rZTojMTgxODE4O3N0cm9rZS13aWR0aDoxLjA7IiB4MT0iMzYiIHgyPSIyODAiIHkxPSIyNzcuMzgyOCIgeTI9IjI3Ny4zODI4Ii8+PHRleHQgZmlsbD0iIzAwMDAwMCIgZm9udC1mYW1pbHk9InNhbnMtc2VyaWYiIGZvbnQtc2l6ZT0iMTMiIGxlbmd0aEFkanVzdD0ic3BhY2luZyIgdGV4dExlbmd0aD0iMjIxIiB4PSI1MyIgeT0iMjczLjc1NzgiPkNob29zZSBhY3Rpb24gKGFkZCwgZWRpdCwgZGVsZXRlKTwvdGV4dD48bGluZSBzdHlsZT0ic3Ryb2tlOiMxODE4MTg7c3Ryb2tlLXdpZHRoOjEuMDsiIHgxPSIyNzkiIHgyPSIyNjkiIHkxPSIzMDUuMjk2OSIgeTI9IjMwMS4yOTY5Ii8+PGxpbmUgc3R5bGU9InN0cm9rZTojMTgxODE4O3N0cm9rZS13aWR0aDoxLjA7IiB4MT0iMjc5IiB4Mj0iMjY5IiB5MT0iMzA1LjI5NjkiIHkyPSIzMDkuMjk2OSIvPjxsaW5lIHN0eWxlPSJzdHJva2U6IzE4MTgxODtzdHJva2Utd2lkdGg6MS4wOyIgeDE9IjM2IiB4Mj0iMjgwIiB5MT0iMzA1LjI5NjkiIHkyPSIzMDUuMjk2OSIvPjx0ZXh0IGZpbGw9IiMwMDAwMDAiIGZvbnQtZmFtaWx5PSJzYW5zLXNlcmlmIiBmb250LXNpemU9IjEzIiBsZW5ndGhBZGp1c3Q9InNwYWNpbmciIHRleHRMZW5ndGg9IjE4OCIgeD0iNDMiIHk9IjMwMS42NzE5Ij5BY3Rpb24gYW5kIGRpdmUgc2l0ZSBkZXRhaWxzPC90ZXh0PjxsaW5lIHN0eWxlPSJzdHJva2U6IzE4MTgxODtzdHJva2Utd2lkdGg6MS4wOyIgeDE9IjUwMCIgeDI9IjQ5MCIgeTE9IjMzMy4yMTA5IiB5Mj0iMzI5LjIxMDkiLz48bGluZSBzdHlsZT0ic3Ryb2tlOiMxODE4MTg7c3Ryb2tlLXdpZHRoOjEuMDsiIHgxPSI1MDAiIHgyPSI0OTAiIHkxPSIzMzMuMjEwOSIgeTI9IjMzNy4yMTA5Ii8+PGxpbmUgc3R5bGU9InN0cm9rZTojMTgxODE4O3N0cm9rZS13aWR0aDoxLjA7IiB4MT0iMjg2IiB4Mj0iNTAxIiB5MT0iMzMzLjIxMDkiIHkyPSIzMzMuMjEwOSIvPjx0ZXh0IGZpbGw9IiMwMDAwMDAiIGZvbnQtZmFtaWx5PSJzYW5zLXNlcmlmIiBmb250LXNpemU9IjEzIiBsZW5ndGhBZGp1c3Q9InNwYWNpbmciIHRleHRMZW5ndGg9IjE4NyIgeD0iMjkzIiB5PSIzMjkuNTg1OSI+VXBkYXRlIGRpdmUgc2l0ZSBpbmZvcm1hdGlvbjwvdGV4dD48bGluZSBzdHlsZT0ic3Ryb2tlOiMxODE4MTg7c3Ryb2tlLXdpZHRoOjEuMDsiIHgxPSIzNyIgeDI9IjQ3IiB5MT0iMzYxLjEyNSIgeTI9IjM1Ny4xMjUiLz48bGluZSBzdHlsZT0ic3Ryb2tlOiMxODE4MTg7c3Ryb2tlLXdpZHRoOjEuMDsiIHgxPSIzNyIgeDI9IjQ3IiB5MT0iMzYxLjEyNSIgeTI9IjM2NS4xMjUiLz48bGluZSBzdHlsZT0ic3Ryb2tlOiMxODE4MTg7c3Ryb2tlLXdpZHRoOjEuMDsiIHgxPSIzNiIgeDI9IjI4NSIgeTE9IjM2MS4xMjUiIHkyPSIzNjEuMTI1Ii8+PHRleHQgZmlsbD0iIzAwMDAwMCIgZm9udC1mYW1pbHk9InNhbnMtc2VyaWYiIGZvbnQtc2l6ZT0iMTMiIGxlbmd0aEFkanVzdD0ic3BhY2luZyIgdGV4dExlbmd0aD0iMjEwIiB4PSI1MyIgeT0iMzU3LjUiPkRpdmUgc2l0ZXMgbWFuYWdlZCBzdWNjZXNzZnVsbHk8L3RleHQ+PCEtLVNSQz1beFA1MTJpOTAzNE50U3VlaTVVZTVrWDJhdFJlZzdZMUVLWHNPcGZHY0JOWHhkVFFZT0Q2NUF5N2o5X19iX21Jam5XdkFEdDNYLXdEZmlMRGROT2oxSHQ2RjBLX1NTRDNnOGloRG9xM2JiNGpLRkFBbUNKRGRpenFra05FT2JENDlvSWU2aFJlMWJQVk5CT2J0VURnSkd0NkVLSFdJOUdQTzhMNDZKNHVwOEZRaWxGd1NRSlR2Q0gxR29ZTXROM1V0ZWxGb0JpMXB6SG1FQlFLTTN1OEJUVW1RSjZuM182TkRTaU9BREVDU1dWSk1pYVpUVXR5bndPcF9GX3h5N3d5MF0tLT48L2c+PC9zdmc+;" vertex="1" parent="1">
            <mxGeometry x="650" y="720" width="571" height="458" as="geometry" />
          </mxCell>
        </UserObject>
        <UserObject label="" plantUmlData="{&quot;data&quot;:&quot;@startuml\nactor DiveClub\nparticipant DiveManagementSystem\nparticipant InstructorDatabase\n\nDiveClub-&gt;&gt;DiveManagementSystem: Manage Instructors\nactivate DiveManagementSystem\nDiveManagementSystem-&gt;&gt;DiveClub: Choose action (add, edit, delete)\nDiveClub-&gt;&gt;DiveManagementSystem: Action and instructor details\nDiveManagementSystem-&gt;&gt;InstructorDatabase: Update instructor information\ndeactivate DiveManagementSystem\nDiveManagementSystem-&gt;&gt;DiveClub: Instructors managed successfully\n@enduml&quot;,&quot;format&quot;:&quot;svg&quot;}" id="wGYJW0pL6X7Hzjq0BeQI-7">
          <mxCell style="shape=image;noLabel=1;verticalAlign=top;aspect=fixed;imageAspect=0;image=data:image/svg+xml,PD94bWwgdmVyc2lvbj0iMS4wIiBlbmNvZGluZz0idXMtYXNjaWkiIHN0YW5kYWxvbmU9Im5vIj8+PHN2ZyB4bWxucz0iaHR0cDovL3d3dy53My5vcmcvMjAwMC9zdmciIHhtbG5zOnhsaW5rPSJodHRwOi8vd3d3LnczLm9yZy8xOTk5L3hsaW5rIiBjb250ZW50U3R5bGVUeXBlPSJ0ZXh0L2NzcyIgaGVpZ2h0PSIzMTlweCIgcHJlc2VydmVBc3BlY3RSYXRpbz0ibm9uZSIgc3R5bGU9IndpZHRoOjU4NXB4O2hlaWdodDozMTlweDtiYWNrZ3JvdW5kOiNGRkZGRkY7IiB2ZXJzaW9uPSIxLjEiIHZpZXdCb3g9IjAgMCA1ODUgMzE5IiB3aWR0aD0iNTg1cHgiIHpvb21BbmRQYW49Im1hZ25pZnkiPjxkZWZzLz48Zz48cmVjdCBmaWxsPSIjRkZGRkZGIiBoZWlnaHQ9IjgzLjc0MjIiIHN0eWxlPSJzdHJva2U6IzE4MTgxODtzdHJva2Utd2lkdGg6MS4wOyIgd2lkdGg9IjEwIiB4PSIyODEiIHk9IjEwOS44OTg0Ii8+PGxpbmUgc3R5bGU9InN0cm9rZTojMTgxODE4O3N0cm9rZS13aWR0aDowLjU7c3Ryb2tlLWRhc2hhcnJheTo1LjAsNS4wOyIgeDE9IjM2IiB4Mj0iMzYiIHkxPSI3OS45ODQ0IiB5Mj0iMjM5LjU1NDciLz48bGluZSBzdHlsZT0ic3Ryb2tlOiMxODE4MTg7c3Ryb2tlLXdpZHRoOjAuNTtzdHJva2UtZGFzaGFycmF5OjUuMCw1LjA7IiB4MT0iMjg2IiB4Mj0iMjg2IiB5MT0iNzkuOTg0NCIgeTI9IjIzOS41NTQ3Ii8+PGxpbmUgc3R5bGU9InN0cm9rZTojMTgxODE4O3N0cm9rZS13aWR0aDowLjU7c3Ryb2tlLWRhc2hhcnJheTo1LjAsNS4wOyIgeDE9IjUwOSIgeDI9IjUwOSIgeTE9Ijc5Ljk4NDQiIHkyPSIyMzkuNTU0NyIvPjx0ZXh0IGZpbGw9IiMwMDAwMDAiIGZvbnQtZmFtaWx5PSJzYW5zLXNlcmlmIiBmb250LXNpemU9IjE0IiBsZW5ndGhBZGp1c3Q9InNwYWNpbmciIHRleHRMZW5ndGg9IjU2IiB4PSI1IiB5PSI3OC4yMzQ0Ij5EaXZlQ2x1YjwvdGV4dD48ZWxsaXBzZSBjeD0iMzYiIGN5PSIxMy41IiBmaWxsPSIjRTJFMkYwIiByeD0iOCIgcnk9IjgiIHN0eWxlPSJzdHJva2U6IzE4MTgxODtzdHJva2Utd2lkdGg6MC41OyIvPjxwYXRoIGQ9Ik0zNiwyMS41IEwzNiw0OC41IE0yMywyOS41IEw0OSwyOS41IE0zNiw0OC41IEwyMyw2My41IE0zNiw0OC41IEw0OSw2My41ICIgZmlsbD0ibm9uZSIgc3R5bGU9InN0cm9rZTojMTgxODE4O3N0cm9rZS13aWR0aDowLjU7Ii8+PHRleHQgZmlsbD0iIzAwMDAwMCIgZm9udC1mYW1pbHk9InNhbnMtc2VyaWYiIGZvbnQtc2l6ZT0iMTQiIGxlbmd0aEFkanVzdD0ic3BhY2luZyIgdGV4dExlbmd0aD0iNTYiIHg9IjUiIHk9IjI1MS43ODkxIj5EaXZlQ2x1YjwvdGV4dD48ZWxsaXBzZSBjeD0iMzYiIGN5PSIyNjIuMDM5MSIgZmlsbD0iI0UyRTJGMCIgcng9IjgiIHJ5PSI4IiBzdHlsZT0ic3Ryb2tlOiMxODE4MTg7c3Ryb2tlLXdpZHRoOjAuNTsiLz48cGF0aCBkPSJNMzYsMjcwLjAzOTEgTDM2LDI5Ny4wMzkxIE0yMywyNzguMDM5MSBMNDksMjc4LjAzOTEgTTM2LDI5Ny4wMzkxIEwyMywzMTIuMDM5MSBNMzYsMjk3LjAzOTEgTDQ5LDMxMi4wMzkxICIgZmlsbD0ibm9uZSIgc3R5bGU9InN0cm9rZTojMTgxODE4O3N0cm9rZS13aWR0aDowLjU7Ii8+PHJlY3QgZmlsbD0iI0UyRTJGMCIgaGVpZ2h0PSIyOC45ODQ0IiByeD0iMi41IiByeT0iMi41IiBzdHlsZT0ic3Ryb2tlOiMxODE4MTg7c3Ryb2tlLXdpZHRoOjAuNTsiIHdpZHRoPSIxNTYiIHg9IjIwOCIgeT0iNTAiLz48dGV4dCBmaWxsPSIjMDAwMDAwIiBmb250LWZhbWlseT0ic2Fucy1zZXJpZiIgZm9udC1zaXplPSIxNCIgbGVuZ3RoQWRqdXN0PSJzcGFjaW5nIiB0ZXh0TGVuZ3RoPSIxNDIiIHg9IjIxNSIgeT0iNzAuMjM0NCI+RGl2ZU1hbmFnZW1lbnRTeXN0ZW08L3RleHQ+PHJlY3QgZmlsbD0iI0UyRTJGMCIgaGVpZ2h0PSIyOC45ODQ0IiByeD0iMi41IiByeT0iMi41IiBzdHlsZT0ic3Ryb2tlOiMxODE4MTg7c3Ryb2tlLXdpZHRoOjAuNTsiIHdpZHRoPSIxNTYiIHg9IjIwOCIgeT0iMjM4LjU1NDciLz48dGV4dCBmaWxsPSIjMDAwMDAwIiBmb250LWZhbWlseT0ic2Fucy1zZXJpZiIgZm9udC1zaXplPSIxNCIgbGVuZ3RoQWRqdXN0PSJzcGFjaW5nIiB0ZXh0TGVuZ3RoPSIxNDIiIHg9IjIxNSIgeT0iMjU4Ljc4OTEiPkRpdmVNYW5hZ2VtZW50U3lzdGVtPC90ZXh0PjxyZWN0IGZpbGw9IiNFMkUyRjAiIGhlaWdodD0iMjguOTg0NCIgcng9IjIuNSIgcnk9IjIuNSIgc3R5bGU9InN0cm9rZTojMTgxODE4O3N0cm9rZS13aWR0aDowLjU7IiB3aWR0aD0iMTQwIiB4PSI0MzkiIHk9IjUwIi8+PHRleHQgZmlsbD0iIzAwMDAwMCIgZm9udC1mYW1pbHk9InNhbnMtc2VyaWYiIGZvbnQtc2l6ZT0iMTQiIGxlbmd0aEFkanVzdD0ic3BhY2luZyIgdGV4dExlbmd0aD0iMTI2IiB4PSI0NDYiIHk9IjcwLjIzNDQiPkluc3RydWN0b3JEYXRhYmFzZTwvdGV4dD48cmVjdCBmaWxsPSIjRTJFMkYwIiBoZWlnaHQ9IjI4Ljk4NDQiIHJ4PSIyLjUiIHJ5PSIyLjUiIHN0eWxlPSJzdHJva2U6IzE4MTgxODtzdHJva2Utd2lkdGg6MC41OyIgd2lkdGg9IjE0MCIgeD0iNDM5IiB5PSIyMzguNTU0NyIvPjx0ZXh0IGZpbGw9IiMwMDAwMDAiIGZvbnQtZmFtaWx5PSJzYW5zLXNlcmlmIiBmb250LXNpemU9IjE0IiBsZW5ndGhBZGp1c3Q9InNwYWNpbmciIHRleHRMZW5ndGg9IjEyNiIgeD0iNDQ2IiB5PSIyNTguNzg5MSI+SW5zdHJ1Y3RvckRhdGFiYXNlPC90ZXh0PjxyZWN0IGZpbGw9IiNGRkZGRkYiIGhlaWdodD0iODMuNzQyMiIgc3R5bGU9InN0cm9rZTojMTgxODE4O3N0cm9rZS13aWR0aDoxLjA7IiB3aWR0aD0iMTAiIHg9IjI4MSIgeT0iMTA5Ljg5ODQiLz48bGluZSBzdHlsZT0ic3Ryb2tlOiMxODE4MTg7c3Ryb2tlLXdpZHRoOjEuMDsiIHgxPSIyNzkiIHgyPSIyNjkiIHkxPSIxMDkuODk4NCIgeTI9IjEwNS44OTg0Ii8+PGxpbmUgc3R5bGU9InN0cm9rZTojMTgxODE4O3N0cm9rZS13aWR0aDoxLjA7IiB4MT0iMjc5IiB4Mj0iMjY5IiB5MT0iMTA5Ljg5ODQiIHkyPSIxMTMuODk4NCIvPjxsaW5lIHN0eWxlPSJzdHJva2U6IzE4MTgxODtzdHJva2Utd2lkdGg6MS4wOyIgeDE9IjM2IiB4Mj0iMjgwIiB5MT0iMTA5Ljg5ODQiIHkyPSIxMDkuODk4NCIvPjx0ZXh0IGZpbGw9IiMwMDAwMDAiIGZvbnQtZmFtaWx5PSJzYW5zLXNlcmlmIiBmb250LXNpemU9IjEzIiBsZW5ndGhBZGp1c3Q9InNwYWNpbmciIHRleHRMZW5ndGg9IjEyMyIgeD0iNDMiIHk9IjEwNi4yNzM0Ij5NYW5hZ2UgSW5zdHJ1Y3RvcnM8L3RleHQ+PGxpbmUgc3R5bGU9InN0cm9rZTojMTgxODE4O3N0cm9rZS13aWR0aDoxLjA7IiB4MT0iMzciIHgyPSI0NyIgeTE9IjEzNy44MTI1IiB5Mj0iMTMzLjgxMjUiLz48bGluZSBzdHlsZT0ic3Ryb2tlOiMxODE4MTg7c3Ryb2tlLXdpZHRoOjEuMDsiIHgxPSIzNyIgeDI9IjQ3IiB5MT0iMTM3LjgxMjUiIHkyPSIxNDEuODEyNSIvPjxsaW5lIHN0eWxlPSJzdHJva2U6IzE4MTgxODtzdHJva2Utd2lkdGg6MS4wOyIgeDE9IjM2IiB4Mj0iMjgwIiB5MT0iMTM3LjgxMjUiIHkyPSIxMzcuODEyNSIvPjx0ZXh0IGZpbGw9IiMwMDAwMDAiIGZvbnQtZmFtaWx5PSJzYW5zLXNlcmlmIiBmb250LXNpemU9IjEzIiBsZW5ndGhBZGp1c3Q9InNwYWNpbmciIHRleHRMZW5ndGg9IjIyMSIgeD0iNTMiIHk9IjEzNC4xODc1Ij5DaG9vc2UgYWN0aW9uIChhZGQsIGVkaXQsIGRlbGV0ZSk8L3RleHQ+PGxpbmUgc3R5bGU9InN0cm9rZTojMTgxODE4O3N0cm9rZS13aWR0aDoxLjA7IiB4MT0iMjc5IiB4Mj0iMjY5IiB5MT0iMTY1LjcyNjYiIHkyPSIxNjEuNzI2NiIvPjxsaW5lIHN0eWxlPSJzdHJva2U6IzE4MTgxODtzdHJva2Utd2lkdGg6MS4wOyIgeDE9IjI3OSIgeDI9IjI2OSIgeTE9IjE2NS43MjY2IiB5Mj0iMTY5LjcyNjYiLz48bGluZSBzdHlsZT0ic3Ryb2tlOiMxODE4MTg7c3Ryb2tlLXdpZHRoOjEuMDsiIHgxPSIzNiIgeDI9IjI4MCIgeTE9IjE2NS43MjY2IiB5Mj0iMTY1LjcyNjYiLz48dGV4dCBmaWxsPSIjMDAwMDAwIiBmb250LWZhbWlseT0ic2Fucy1zZXJpZiIgZm9udC1zaXplPSIxMyIgbGVuZ3RoQWRqdXN0PSJzcGFjaW5nIiB0ZXh0TGVuZ3RoPSIxOTUiIHg9IjQzIiB5PSIxNjIuMTAxNiI+QWN0aW9uIGFuZCBpbnN0cnVjdG9yIGRldGFpbHM8L3RleHQ+PGxpbmUgc3R5bGU9InN0cm9rZTojMTgxODE4O3N0cm9rZS13aWR0aDoxLjA7IiB4MT0iNTA3IiB4Mj0iNDk3IiB5MT0iMTkzLjY0MDYiIHkyPSIxODkuNjQwNiIvPjxsaW5lIHN0eWxlPSJzdHJva2U6IzE4MTgxODtzdHJva2Utd2lkdGg6MS4wOyIgeDE9IjUwNyIgeDI9IjQ5NyIgeTE9IjE5My42NDA2IiB5Mj0iMTk3LjY0MDYiLz48bGluZSBzdHlsZT0ic3Ryb2tlOiMxODE4MTg7c3Ryb2tlLXdpZHRoOjEuMDsiIHgxPSIyODYiIHgyPSI1MDgiIHkxPSIxOTMuNjQwNiIgeTI9IjE5My42NDA2Ii8+PHRleHQgZmlsbD0iIzAwMDAwMCIgZm9udC1mYW1pbHk9InNhbnMtc2VyaWYiIGZvbnQtc2l6ZT0iMTMiIGxlbmd0aEFkanVzdD0ic3BhY2luZyIgdGV4dExlbmd0aD0iMTk0IiB4PSIyOTMiIHk9IjE5MC4wMTU2Ij5VcGRhdGUgaW5zdHJ1Y3RvciBpbmZvcm1hdGlvbjwvdGV4dD48bGluZSBzdHlsZT0ic3Ryb2tlOiMxODE4MTg7c3Ryb2tlLXdpZHRoOjEuMDsiIHgxPSIzNyIgeDI9IjQ3IiB5MT0iMjIxLjU1NDciIHkyPSIyMTcuNTU0NyIvPjxsaW5lIHN0eWxlPSJzdHJva2U6IzE4MTgxODtzdHJva2Utd2lkdGg6MS4wOyIgeDE9IjM3IiB4Mj0iNDciIHkxPSIyMjEuNTU0NyIgeTI9IjIyNS41NTQ3Ii8+PGxpbmUgc3R5bGU9InN0cm9rZTojMTgxODE4O3N0cm9rZS13aWR0aDoxLjA7IiB4MT0iMzYiIHgyPSIyODUiIHkxPSIyMjEuNTU0NyIgeTI9IjIyMS41NTQ3Ii8+PHRleHQgZmlsbD0iIzAwMDAwMCIgZm9udC1mYW1pbHk9InNhbnMtc2VyaWYiIGZvbnQtc2l6ZT0iMTMiIGxlbmd0aEFkanVzdD0ic3BhY2luZyIgdGV4dExlbmd0aD0iMjE3IiB4PSI1MyIgeT0iMjE3LjkyOTciPkluc3RydWN0b3JzIG1hbmFnZWQgc3VjY2Vzc2Z1bGx5PC90ZXh0PjwhLS1TUkM9W2ZQMzEzZThtNDRKbF9PZXpRZThfbTg3NG1DTTM5LUM3QkVzWUpLZkJzMnE5Vnd5NURIV243aG5FUGp4RUI2ZTlGTEhzZURCNU1kTk9Zek1zR28tSlU0SUY1c2g5b3NiYWVWUkRTRjBpVktvMDJXTGhQNUJnSVRlTG5MZS1YcmJQUDVjWDVaa1dxRmg1RFY1MUp1VG9BQXlYQzQ2WTEweVJEMk8zQ2JPb0NFSDhRRmt4cjd4RWVaVFdOeU5rU0s3aC01azNwX2F2ZDNrSlhZbVdyWlVYUnA3bmJRNF9mb3ctMWtyYURDMUhRczlrZWRGWjNHMDBdLS0+PC9nPjwvc3ZnPg==;" vertex="1" parent="1">
            <mxGeometry x="24" y="1060" width="585" height="319" as="geometry" />
          </mxCell>
        </UserObject>
        <UserObject label="" plantUmlData="{&quot;data&quot;:&quot;@startuml\nactor DiveClub\nparticipant DiveManagementSystem\nparticipant DiveLogDatabase\n\nDiveClub-&gt;&gt;DiveManagementSystem: View Dive Logs\nactivate DiveManagementSystem\nDiveManagementSystem-&gt;&gt;DiveLogDatabase: Retrieve dive logs\nDiveManagementSystem-&gt;&gt;DiveClub: Display dive logs\ndeactivate DiveManagementSystem\n@enduml&quot;,&quot;format&quot;:&quot;svg&quot;}" id="wGYJW0pL6X7Hzjq0BeQI-8">
          <mxCell style="shape=image;noLabel=1;verticalAlign=top;aspect=fixed;imageAspect=0;image=data:image/svg+xml,PD94bWwgdmVyc2lvbj0iMS4wIiBlbmNvZGluZz0idXMtYXNjaWkiIHN0YW5kYWxvbmU9Im5vIj8+PHN2ZyB4bWxucz0iaHR0cDovL3d3dy53My5vcmcvMjAwMC9zdmciIHhtbG5zOnhsaW5rPSJodHRwOi8vd3d3LnczLm9yZy8xOTk5L3hsaW5rIiBjb250ZW50U3R5bGVUeXBlPSJ0ZXh0L2NzcyIgaGVpZ2h0PSIyNjNweCIgcHJlc2VydmVBc3BlY3RSYXRpbz0ibm9uZSIgc3R5bGU9IndpZHRoOjM5NnB4O2hlaWdodDoyNjNweDtiYWNrZ3JvdW5kOiNGRkZGRkY7IiB2ZXJzaW9uPSIxLjEiIHZpZXdCb3g9IjAgMCAzOTYgMjYzIiB3aWR0aD0iMzk2cHgiIHpvb21BbmRQYW49Im1hZ25pZnkiPjxkZWZzLz48Zz48cmVjdCBmaWxsPSIjRkZGRkZGIiBoZWlnaHQ9IjU1LjgyODEiIHN0eWxlPSJzdHJva2U6IzE4MTgxODtzdHJva2Utd2lkdGg6MS4wOyIgd2lkdGg9IjEwIiB4PSIxNzUiIHk9IjEwOS44OTg0Ii8+PGxpbmUgc3R5bGU9InN0cm9rZTojMTgxODE4O3N0cm9rZS13aWR0aDowLjU7c3Ryb2tlLWRhc2hhcnJheTo1LjAsNS4wOyIgeDE9IjM2IiB4Mj0iMzYiIHkxPSI3OS45ODQ0IiB5Mj0iMTgzLjcyNjYiLz48bGluZSBzdHlsZT0ic3Ryb2tlOiMxODE4MTg7c3Ryb2tlLXdpZHRoOjAuNTtzdHJva2UtZGFzaGFycmF5OjUuMCw1LjA7IiB4MT0iMTgwIiB4Mj0iMTgwIiB5MT0iNzkuOTg0NCIgeTI9IjE4My43MjY2Ii8+PGxpbmUgc3R5bGU9InN0cm9rZTojMTgxODE4O3N0cm9rZS13aWR0aDowLjU7c3Ryb2tlLWRhc2hhcnJheTo1LjAsNS4wOyIgeDE9IjMzMC41IiB4Mj0iMzMwLjUiIHkxPSI3OS45ODQ0IiB5Mj0iMTgzLjcyNjYiLz48dGV4dCBmaWxsPSIjMDAwMDAwIiBmb250LWZhbWlseT0ic2Fucy1zZXJpZiIgZm9udC1zaXplPSIxNCIgbGVuZ3RoQWRqdXN0PSJzcGFjaW5nIiB0ZXh0TGVuZ3RoPSI1NiIgeD0iNSIgeT0iNzguMjM0NCI+RGl2ZUNsdWI8L3RleHQ+PGVsbGlwc2UgY3g9IjM2IiBjeT0iMTMuNSIgZmlsbD0iI0UyRTJGMCIgcng9IjgiIHJ5PSI4IiBzdHlsZT0ic3Ryb2tlOiMxODE4MTg7c3Ryb2tlLXdpZHRoOjAuNTsiLz48cGF0aCBkPSJNMzYsMjEuNSBMMzYsNDguNSBNMjMsMjkuNSBMNDksMjkuNSBNMzYsNDguNSBMMjMsNjMuNSBNMzYsNDguNSBMNDksNjMuNSAiIGZpbGw9Im5vbmUiIHN0eWxlPSJzdHJva2U6IzE4MTgxODtzdHJva2Utd2lkdGg6MC41OyIvPjx0ZXh0IGZpbGw9IiMwMDAwMDAiIGZvbnQtZmFtaWx5PSJzYW5zLXNlcmlmIiBmb250LXNpemU9IjE0IiBsZW5ndGhBZGp1c3Q9InNwYWNpbmciIHRleHRMZW5ndGg9IjU2IiB4PSI1IiB5PSIxOTUuOTYwOSI+RGl2ZUNsdWI8L3RleHQ+PGVsbGlwc2UgY3g9IjM2IiBjeT0iMjA2LjIxMDkiIGZpbGw9IiNFMkUyRjAiIHJ4PSI4IiByeT0iOCIgc3R5bGU9InN0cm9rZTojMTgxODE4O3N0cm9rZS13aWR0aDowLjU7Ii8+PHBhdGggZD0iTTM2LDIxNC4yMTA5IEwzNiwyNDEuMjEwOSBNMjMsMjIyLjIxMDkgTDQ5LDIyMi4yMTA5IE0zNiwyNDEuMjEwOSBMMjMsMjU2LjIxMDkgTTM2LDI0MS4yMTA5IEw0OSwyNTYuMjEwOSAiIGZpbGw9Im5vbmUiIHN0eWxlPSJzdHJva2U6IzE4MTgxODtzdHJva2Utd2lkdGg6MC41OyIvPjxyZWN0IGZpbGw9IiNFMkUyRjAiIGhlaWdodD0iMjguOTg0NCIgcng9IjIuNSIgcnk9IjIuNSIgc3R5bGU9InN0cm9rZTojMTgxODE4O3N0cm9rZS13aWR0aDowLjU7IiB3aWR0aD0iMTU2IiB4PSIxMDIiIHk9IjUwIi8+PHRleHQgZmlsbD0iIzAwMDAwMCIgZm9udC1mYW1pbHk9InNhbnMtc2VyaWYiIGZvbnQtc2l6ZT0iMTQiIGxlbmd0aEFkanVzdD0ic3BhY2luZyIgdGV4dExlbmd0aD0iMTQyIiB4PSIxMDkiIHk9IjcwLjIzNDQiPkRpdmVNYW5hZ2VtZW50U3lzdGVtPC90ZXh0PjxyZWN0IGZpbGw9IiNFMkUyRjAiIGhlaWdodD0iMjguOTg0NCIgcng9IjIuNSIgcnk9IjIuNSIgc3R5bGU9InN0cm9rZTojMTgxODE4O3N0cm9rZS13aWR0aDowLjU7IiB3aWR0aD0iMTU2IiB4PSIxMDIiIHk9IjE4Mi43MjY2Ii8+PHRleHQgZmlsbD0iIzAwMDAwMCIgZm9udC1mYW1pbHk9InNhbnMtc2VyaWYiIGZvbnQtc2l6ZT0iMTQiIGxlbmd0aEFkanVzdD0ic3BhY2luZyIgdGV4dExlbmd0aD0iMTQyIiB4PSIxMDkiIHk9IjIwMi45NjA5Ij5EaXZlTWFuYWdlbWVudFN5c3RlbTwvdGV4dD48cmVjdCBmaWxsPSIjRTJFMkYwIiBoZWlnaHQ9IjI4Ljk4NDQiIHJ4PSIyLjUiIHJ5PSIyLjUiIHN0eWxlPSJzdHJva2U6IzE4MTgxODtzdHJva2Utd2lkdGg6MC41OyIgd2lkdGg9IjExOSIgeD0iMjcxLjUiIHk9IjUwIi8+PHRleHQgZmlsbD0iIzAwMDAwMCIgZm9udC1mYW1pbHk9InNhbnMtc2VyaWYiIGZvbnQtc2l6ZT0iMTQiIGxlbmd0aEFkanVzdD0ic3BhY2luZyIgdGV4dExlbmd0aD0iMTA1IiB4PSIyNzguNSIgeT0iNzAuMjM0NCI+RGl2ZUxvZ0RhdGFiYXNlPC90ZXh0PjxyZWN0IGZpbGw9IiNFMkUyRjAiIGhlaWdodD0iMjguOTg0NCIgcng9IjIuNSIgcnk9IjIuNSIgc3R5bGU9InN0cm9rZTojMTgxODE4O3N0cm9rZS13aWR0aDowLjU7IiB3aWR0aD0iMTE5IiB4PSIyNzEuNSIgeT0iMTgyLjcyNjYiLz48dGV4dCBmaWxsPSIjMDAwMDAwIiBmb250LWZhbWlseT0ic2Fucy1zZXJpZiIgZm9udC1zaXplPSIxNCIgbGVuZ3RoQWRqdXN0PSJzcGFjaW5nIiB0ZXh0TGVuZ3RoPSIxMDUiIHg9IjI3OC41IiB5PSIyMDIuOTYwOSI+RGl2ZUxvZ0RhdGFiYXNlPC90ZXh0PjxyZWN0IGZpbGw9IiNGRkZGRkYiIGhlaWdodD0iNTUuODI4MSIgc3R5bGU9InN0cm9rZTojMTgxODE4O3N0cm9rZS13aWR0aDoxLjA7IiB3aWR0aD0iMTAiIHg9IjE3NSIgeT0iMTA5Ljg5ODQiLz48bGluZSBzdHlsZT0ic3Ryb2tlOiMxODE4MTg7c3Ryb2tlLXdpZHRoOjEuMDsiIHgxPSIxNzMiIHgyPSIxNjMiIHkxPSIxMDkuODk4NCIgeTI9IjEwNS44OTg0Ii8+PGxpbmUgc3R5bGU9InN0cm9rZTojMTgxODE4O3N0cm9rZS13aWR0aDoxLjA7IiB4MT0iMTczIiB4Mj0iMTYzIiB5MT0iMTA5Ljg5ODQiIHkyPSIxMTMuODk4NCIvPjxsaW5lIHN0eWxlPSJzdHJva2U6IzE4MTgxODtzdHJva2Utd2lkdGg6MS4wOyIgeDE9IjM2IiB4Mj0iMTc0IiB5MT0iMTA5Ljg5ODQiIHkyPSIxMDkuODk4NCIvPjx0ZXh0IGZpbGw9IiMwMDAwMDAiIGZvbnQtZmFtaWx5PSJzYW5zLXNlcmlmIiBmb250LXNpemU9IjEzIiBsZW5ndGhBZGp1c3Q9InNwYWNpbmciIHRleHRMZW5ndGg9Ijk1IiB4PSI0MyIgeT0iMTA2LjI3MzQiPlZpZXcgRGl2ZSBMb2dzPC90ZXh0PjxsaW5lIHN0eWxlPSJzdHJva2U6IzE4MTgxODtzdHJva2Utd2lkdGg6MS4wOyIgeDE9IjMyOSIgeDI9IjMxOSIgeTE9IjEzNy44MTI1IiB5Mj0iMTMzLjgxMjUiLz48bGluZSBzdHlsZT0ic3Ryb2tlOiMxODE4MTg7c3Ryb2tlLXdpZHRoOjEuMDsiIHgxPSIzMjkiIHgyPSIzMTkiIHkxPSIxMzcuODEyNSIgeTI9IjE0MS44MTI1Ii8+PGxpbmUgc3R5bGU9InN0cm9rZTojMTgxODE4O3N0cm9rZS13aWR0aDoxLjA7IiB4MT0iMTg1IiB4Mj0iMzMwIiB5MT0iMTM3LjgxMjUiIHkyPSIxMzcuODEyNSIvPjx0ZXh0IGZpbGw9IiMwMDAwMDAiIGZvbnQtZmFtaWx5PSJzYW5zLXNlcmlmIiBmb250LXNpemU9IjEzIiBsZW5ndGhBZGp1c3Q9InNwYWNpbmciIHRleHRMZW5ndGg9IjEyMiIgeD0iMTkyIiB5PSIxMzQuMTg3NSI+UmV0cmlldmUgZGl2ZSBsb2dzPC90ZXh0PjxsaW5lIHN0eWxlPSJzdHJva2U6IzE4MTgxODtzdHJva2Utd2lkdGg6MS4wOyIgeDE9IjM3IiB4Mj0iNDciIHkxPSIxNjUuNzI2NiIgeTI9IjE2MS43MjY2Ii8+PGxpbmUgc3R5bGU9InN0cm9rZTojMTgxODE4O3N0cm9rZS13aWR0aDoxLjA7IiB4MT0iMzciIHgyPSI0NyIgeTE9IjE2NS43MjY2IiB5Mj0iMTY5LjcyNjYiLz48bGluZSBzdHlsZT0ic3Ryb2tlOiMxODE4MTg7c3Ryb2tlLXdpZHRoOjEuMDsiIHgxPSIzNiIgeDI9IjE3OSIgeTE9IjE2NS43MjY2IiB5Mj0iMTY1LjcyNjYiLz48dGV4dCBmaWxsPSIjMDAwMDAwIiBmb250LWZhbWlseT0ic2Fucy1zZXJpZiIgZm9udC1zaXplPSIxMyIgbGVuZ3RoQWRqdXN0PSJzcGFjaW5nIiB0ZXh0TGVuZ3RoPSIxMTUiIHg9IjUzIiB5PSIxNjIuMTAxNiI+RGlzcGxheSBkaXZlIGxvZ3M8L3RleHQ+PCEtLVNSQz1bVk92MTJlQ201NEp0RUtLa3EwamF1UU9rc3FxQnRPX244bnpZM0NjbG5Ua1JJME4xdTdRT3pzUFdQT2d3dlBka3hqa2ZXMlhpRVMzQjVaeFhDVDE4Tmp2QjRYZkZYU1NxajExcUlBSktoaGFySkdxcy1pRnFzcDJUa1FIV1hNUzhyUVRndVR6eU0zTndISEFQaWhDbE9iVjQ1c1p2UF85VzJXeEIwVWRmeWlxQV0tLT48L2c+PC9zdmc+;" vertex="1" parent="1">
            <mxGeometry x="650" y="1190" width="396" height="263" as="geometry" />
          </mxCell>
        </UserObject>
        <UserObject label="" plantUmlData="{&quot;data&quot;:&quot;@startuml\nactor DiveInstructor\nparticipant DiveManagementSystem\nparticipant DiveDatabase\n\nDiveInstructor-&gt;&gt;DiveManagementSystem: Manage Dives\nactivate DiveManagementSystem\nDiveManagementSystem-&gt;&gt;DiveInstructor: Choose action (add, edit, delete)\nDiveInstructor-&gt;&gt;DiveManagementSystem: Action and dive details\nDiveManagementSystem-&gt;&gt;DiveDatabase: Update dive information\ndeactivate DiveManagementSystem\nDiveManagementSystem-&gt;&gt;DiveInstructor: Dives managed successfully\n@enduml&quot;,&quot;format&quot;:&quot;svg&quot;}" id="wGYJW0pL6X7Hzjq0BeQI-9">
          <mxCell style="shape=image;noLabel=1;verticalAlign=top;aspect=fixed;imageAspect=0;image=data:image/svg+xml,PD94bWwgdmVyc2lvbj0iMS4wIiBlbmNvZGluZz0idXMtYXNjaWkiIHN0YW5kYWxvbmU9Im5vIj8+PHN2ZyB4bWxucz0iaHR0cDovL3d3dy53My5vcmcvMjAwMC9zdmciIHhtbG5zOnhsaW5rPSJodHRwOi8vd3d3LnczLm9yZy8xOTk5L3hsaW5rIiBjb250ZW50U3R5bGVUeXBlPSJ0ZXh0L2NzcyIgaGVpZ2h0PSIzMTlweCIgcHJlc2VydmVBc3BlY3RSYXRpbz0ibm9uZSIgc3R5bGU9IndpZHRoOjU0NXB4O2hlaWdodDozMTlweDtiYWNrZ3JvdW5kOiNGRkZGRkY7IiB2ZXJzaW9uPSIxLjEiIHZpZXdCb3g9IjAgMCA1NDUgMzE5IiB3aWR0aD0iNTQ1cHgiIHpvb21BbmRQYW49Im1hZ25pZnkiPjxkZWZzLz48Zz48cmVjdCBmaWxsPSIjRkZGRkZGIiBoZWlnaHQ9IjgzLjc0MjIiIHN0eWxlPSJzdHJva2U6IzE4MTgxODtzdHJva2Utd2lkdGg6MS4wOyIgd2lkdGg9IjEwIiB4PSIzMDIiIHk9IjEwOS44OTg0Ii8+PGxpbmUgc3R5bGU9InN0cm9rZTojMTgxODE4O3N0cm9rZS13aWR0aDowLjU7c3Ryb2tlLWRhc2hhcnJheTo1LjAsNS4wOyIgeDE9IjU3IiB4Mj0iNTciIHkxPSI3OS45ODQ0IiB5Mj0iMjM5LjU1NDciLz48bGluZSBzdHlsZT0ic3Ryb2tlOiMxODE4MTg7c3Ryb2tlLXdpZHRoOjAuNTtzdHJva2UtZGFzaGFycmF5OjUuMCw1LjA7IiB4MT0iMzA3IiB4Mj0iMzA3IiB5MT0iNzkuOTg0NCIgeTI9IjIzOS41NTQ3Ii8+PGxpbmUgc3R5bGU9InN0cm9rZTojMTgxODE4O3N0cm9rZS13aWR0aDowLjU7c3Ryb2tlLWRhc2hhcnJheTo1LjAsNS4wOyIgeDE9IjQ5MCIgeDI9IjQ5MCIgeTE9Ijc5Ljk4NDQiIHkyPSIyMzkuNTU0NyIvPjx0ZXh0IGZpbGw9IiMwMDAwMDAiIGZvbnQtZmFtaWx5PSJzYW5zLXNlcmlmIiBmb250LXNpemU9IjE0IiBsZW5ndGhBZGp1c3Q9InNwYWNpbmciIHRleHRMZW5ndGg9Ijk4IiB4PSI1IiB5PSI3OC4yMzQ0Ij5EaXZlSW5zdHJ1Y3RvcjwvdGV4dD48ZWxsaXBzZSBjeD0iNTciIGN5PSIxMy41IiBmaWxsPSIjRTJFMkYwIiByeD0iOCIgcnk9IjgiIHN0eWxlPSJzdHJva2U6IzE4MTgxODtzdHJva2Utd2lkdGg6MC41OyIvPjxwYXRoIGQ9Ik01NywyMS41IEw1Nyw0OC41IE00NCwyOS41IEw3MCwyOS41IE01Nyw0OC41IEw0NCw2My41IE01Nyw0OC41IEw3MCw2My41ICIgZmlsbD0ibm9uZSIgc3R5bGU9InN0cm9rZTojMTgxODE4O3N0cm9rZS13aWR0aDowLjU7Ii8+PHRleHQgZmlsbD0iIzAwMDAwMCIgZm9udC1mYW1pbHk9InNhbnMtc2VyaWYiIGZvbnQtc2l6ZT0iMTQiIGxlbmd0aEFkanVzdD0ic3BhY2luZyIgdGV4dExlbmd0aD0iOTgiIHg9IjUiIHk9IjI1MS43ODkxIj5EaXZlSW5zdHJ1Y3RvcjwvdGV4dD48ZWxsaXBzZSBjeD0iNTciIGN5PSIyNjIuMDM5MSIgZmlsbD0iI0UyRTJGMCIgcng9IjgiIHJ5PSI4IiBzdHlsZT0ic3Ryb2tlOiMxODE4MTg7c3Ryb2tlLXdpZHRoOjAuNTsiLz48cGF0aCBkPSJNNTcsMjcwLjAzOTEgTDU3LDI5Ny4wMzkxIE00NCwyNzguMDM5MSBMNzAsMjc4LjAzOTEgTTU3LDI5Ny4wMzkxIEw0NCwzMTIuMDM5MSBNNTcsMjk3LjAzOTEgTDcwLDMxMi4wMzkxICIgZmlsbD0ibm9uZSIgc3R5bGU9InN0cm9rZTojMTgxODE4O3N0cm9rZS13aWR0aDowLjU7Ii8+PHJlY3QgZmlsbD0iI0UyRTJGMCIgaGVpZ2h0PSIyOC45ODQ0IiByeD0iMi41IiByeT0iMi41IiBzdHlsZT0ic3Ryb2tlOiMxODE4MTg7c3Ryb2tlLXdpZHRoOjAuNTsiIHdpZHRoPSIxNTYiIHg9IjIyOSIgeT0iNTAiLz48dGV4dCBmaWxsPSIjMDAwMDAwIiBmb250LWZhbWlseT0ic2Fucy1zZXJpZiIgZm9udC1zaXplPSIxNCIgbGVuZ3RoQWRqdXN0PSJzcGFjaW5nIiB0ZXh0TGVuZ3RoPSIxNDIiIHg9IjIzNiIgeT0iNzAuMjM0NCI+RGl2ZU1hbmFnZW1lbnRTeXN0ZW08L3RleHQ+PHJlY3QgZmlsbD0iI0UyRTJGMCIgaGVpZ2h0PSIyOC45ODQ0IiByeD0iMi41IiByeT0iMi41IiBzdHlsZT0ic3Ryb2tlOiMxODE4MTg7c3Ryb2tlLXdpZHRoOjAuNTsiIHdpZHRoPSIxNTYiIHg9IjIyOSIgeT0iMjM4LjU1NDciLz48dGV4dCBmaWxsPSIjMDAwMDAwIiBmb250LWZhbWlseT0ic2Fucy1zZXJpZiIgZm9udC1zaXplPSIxNCIgbGVuZ3RoQWRqdXN0PSJzcGFjaW5nIiB0ZXh0TGVuZ3RoPSIxNDIiIHg9IjIzNiIgeT0iMjU4Ljc4OTEiPkRpdmVNYW5hZ2VtZW50U3lzdGVtPC90ZXh0PjxyZWN0IGZpbGw9IiNFMkUyRjAiIGhlaWdodD0iMjguOTg0NCIgcng9IjIuNSIgcnk9IjIuNSIgc3R5bGU9InN0cm9rZTojMTgxODE4O3N0cm9rZS13aWR0aDowLjU7IiB3aWR0aD0iOTgiIHg9IjQ0MSIgeT0iNTAiLz48dGV4dCBmaWxsPSIjMDAwMDAwIiBmb250LWZhbWlseT0ic2Fucy1zZXJpZiIgZm9udC1zaXplPSIxNCIgbGVuZ3RoQWRqdXN0PSJzcGFjaW5nIiB0ZXh0TGVuZ3RoPSI4NCIgeD0iNDQ4IiB5PSI3MC4yMzQ0Ij5EaXZlRGF0YWJhc2U8L3RleHQ+PHJlY3QgZmlsbD0iI0UyRTJGMCIgaGVpZ2h0PSIyOC45ODQ0IiByeD0iMi41IiByeT0iMi41IiBzdHlsZT0ic3Ryb2tlOiMxODE4MTg7c3Ryb2tlLXdpZHRoOjAuNTsiIHdpZHRoPSI5OCIgeD0iNDQxIiB5PSIyMzguNTU0NyIvPjx0ZXh0IGZpbGw9IiMwMDAwMDAiIGZvbnQtZmFtaWx5PSJzYW5zLXNlcmlmIiBmb250LXNpemU9IjE0IiBsZW5ndGhBZGp1c3Q9InNwYWNpbmciIHRleHRMZW5ndGg9Ijg0IiB4PSI0NDgiIHk9IjI1OC43ODkxIj5EaXZlRGF0YWJhc2U8L3RleHQ+PHJlY3QgZmlsbD0iI0ZGRkZGRiIgaGVpZ2h0PSI4My43NDIyIiBzdHlsZT0ic3Ryb2tlOiMxODE4MTg7c3Ryb2tlLXdpZHRoOjEuMDsiIHdpZHRoPSIxMCIgeD0iMzAyIiB5PSIxMDkuODk4NCIvPjxsaW5lIHN0eWxlPSJzdHJva2U6IzE4MTgxODtzdHJva2Utd2lkdGg6MS4wOyIgeDE9IjMwMCIgeDI9IjI5MCIgeTE9IjEwOS44OTg0IiB5Mj0iMTA1Ljg5ODQiLz48bGluZSBzdHlsZT0ic3Ryb2tlOiMxODE4MTg7c3Ryb2tlLXdpZHRoOjEuMDsiIHgxPSIzMDAiIHgyPSIyOTAiIHkxPSIxMDkuODk4NCIgeTI9IjExMy44OTg0Ii8+PGxpbmUgc3R5bGU9InN0cm9rZTojMTgxODE4O3N0cm9rZS13aWR0aDoxLjA7IiB4MT0iNTciIHgyPSIzMDEiIHkxPSIxMDkuODk4NCIgeTI9IjEwOS44OTg0Ii8+PHRleHQgZmlsbD0iIzAwMDAwMCIgZm9udC1mYW1pbHk9InNhbnMtc2VyaWYiIGZvbnQtc2l6ZT0iMTMiIGxlbmd0aEFkanVzdD0ic3BhY2luZyIgdGV4dExlbmd0aD0iODMiIHg9IjY0IiB5PSIxMDYuMjczNCI+TWFuYWdlIERpdmVzPC90ZXh0PjxsaW5lIHN0eWxlPSJzdHJva2U6IzE4MTgxODtzdHJva2Utd2lkdGg6MS4wOyIgeDE9IjU4IiB4Mj0iNjgiIHkxPSIxMzcuODEyNSIgeTI9IjEzMy44MTI1Ii8+PGxpbmUgc3R5bGU9InN0cm9rZTojMTgxODE4O3N0cm9rZS13aWR0aDoxLjA7IiB4MT0iNTgiIHgyPSI2OCIgeTE9IjEzNy44MTI1IiB5Mj0iMTQxLjgxMjUiLz48bGluZSBzdHlsZT0ic3Ryb2tlOiMxODE4MTg7c3Ryb2tlLXdpZHRoOjEuMDsiIHgxPSI1NyIgeDI9IjMwMSIgeTE9IjEzNy44MTI1IiB5Mj0iMTM3LjgxMjUiLz48dGV4dCBmaWxsPSIjMDAwMDAwIiBmb250LWZhbWlseT0ic2Fucy1zZXJpZiIgZm9udC1zaXplPSIxMyIgbGVuZ3RoQWRqdXN0PSJzcGFjaW5nIiB0ZXh0TGVuZ3RoPSIyMjEiIHg9Ijc0IiB5PSIxMzQuMTg3NSI+Q2hvb3NlIGFjdGlvbiAoYWRkLCBlZGl0LCBkZWxldGUpPC90ZXh0PjxsaW5lIHN0eWxlPSJzdHJva2U6IzE4MTgxODtzdHJva2Utd2lkdGg6MS4wOyIgeDE9IjMwMCIgeDI9IjI5MCIgeTE9IjE2NS43MjY2IiB5Mj0iMTYxLjcyNjYiLz48bGluZSBzdHlsZT0ic3Ryb2tlOiMxODE4MTg7c3Ryb2tlLXdpZHRoOjEuMDsiIHgxPSIzMDAiIHgyPSIyOTAiIHkxPSIxNjUuNzI2NiIgeTI9IjE2OS43MjY2Ii8+PGxpbmUgc3R5bGU9InN0cm9rZTojMTgxODE4O3N0cm9rZS13aWR0aDoxLjA7IiB4MT0iNTciIHgyPSIzMDEiIHkxPSIxNjUuNzI2NiIgeTI9IjE2NS43MjY2Ii8+PHRleHQgZmlsbD0iIzAwMDAwMCIgZm9udC1mYW1pbHk9InNhbnMtc2VyaWYiIGZvbnQtc2l6ZT0iMTMiIGxlbmd0aEFkanVzdD0ic3BhY2luZyIgdGV4dExlbmd0aD0iMTU1IiB4PSI2NCIgeT0iMTYyLjEwMTYiPkFjdGlvbiBhbmQgZGl2ZSBkZXRhaWxzPC90ZXh0PjxsaW5lIHN0eWxlPSJzdHJva2U6IzE4MTgxODtzdHJva2Utd2lkdGg6MS4wOyIgeDE9IjQ4OCIgeDI9IjQ3OCIgeTE9IjE5My42NDA2IiB5Mj0iMTg5LjY0MDYiLz48bGluZSBzdHlsZT0ic3Ryb2tlOiMxODE4MTg7c3Ryb2tlLXdpZHRoOjEuMDsiIHgxPSI0ODgiIHgyPSI0NzgiIHkxPSIxOTMuNjQwNiIgeTI9IjE5Ny42NDA2Ii8+PGxpbmUgc3R5bGU9InN0cm9rZTojMTgxODE4O3N0cm9rZS13aWR0aDoxLjA7IiB4MT0iMzA3IiB4Mj0iNDg5IiB5MT0iMTkzLjY0MDYiIHkyPSIxOTMuNjQwNiIvPjx0ZXh0IGZpbGw9IiMwMDAwMDAiIGZvbnQtZmFtaWx5PSJzYW5zLXNlcmlmIiBmb250LXNpemU9IjEzIiBsZW5ndGhBZGp1c3Q9InNwYWNpbmciIHRleHRMZW5ndGg9IjE1NCIgeD0iMzE0IiB5PSIxOTAuMDE1NiI+VXBkYXRlIGRpdmUgaW5mb3JtYXRpb248L3RleHQ+PGxpbmUgc3R5bGU9InN0cm9rZTojMTgxODE4O3N0cm9rZS13aWR0aDoxLjA7IiB4MT0iNTgiIHgyPSI2OCIgeTE9IjIyMS41NTQ3IiB5Mj0iMjE3LjU1NDciLz48bGluZSBzdHlsZT0ic3Ryb2tlOiMxODE4MTg7c3Ryb2tlLXdpZHRoOjEuMDsiIHgxPSI1OCIgeDI9IjY4IiB5MT0iMjIxLjU1NDciIHkyPSIyMjUuNTU0NyIvPjxsaW5lIHN0eWxlPSJzdHJva2U6IzE4MTgxODtzdHJva2Utd2lkdGg6MS4wOyIgeDE9IjU3IiB4Mj0iMzA2IiB5MT0iMjIxLjU1NDciIHkyPSIyMjEuNTU0NyIvPjx0ZXh0IGZpbGw9IiMwMDAwMDAiIGZvbnQtZmFtaWx5PSJzYW5zLXNlcmlmIiBmb250LXNpemU9IjEzIiBsZW5ndGhBZGp1c3Q9InNwYWNpbmciIHRleHRMZW5ndGg9IjE3NyIgeD0iNzQiIHk9IjIxNy45Mjk3Ij5EaXZlcyBtYW5hZ2VkIHN1Y2Nlc3NmdWxseTwvdGV4dD48IS0tU1JDPVtoUDBuM2k4bTM0TnRkQzhaSUVLMjdJZVhNMVlPNDBTbWlHa0hjZ0lBdEtnekZNcUFHZVdBQ0ozUV9sX1B0c1dyOWpZeGRXejFEN0xKUUxmQ3dnbmhDTVdVN0o3V2JKcTdGR3NZeDN5NFVySXllQjBueHdIRExJdHZJdld4c0lpNmhSZVViUFR0QkpLVnREVVk0ZFF0NjhMWE9pSzBBb0dnV0NiZjBTR0RBd3pfRk1xeDRwMEdxMldPeE9na2FNenRGRUVOUzZ2ZjJmQURCakduVVBuZVhsV2w4VkVfbTZTWFdOSk1pYVpURFNybTFtMDBdLS0+PC9nPjwvc3ZnPg==;" vertex="1" parent="1">
            <mxGeometry x="24" y="1390" width="545" height="319" as="geometry" />
          </mxCell>
        </UserObject>
        <UserObject label="" plantUmlData="{&quot;data&quot;:&quot;@startuml\nactor DiveInstructor\nparticipant DiveManagementSystem\nparticipant DiveDatabase\n\nDiveInstructor-&gt;&gt;DiveManagementSystem: Confirm Dives\nactivate DiveManagementSystem\nDiveManagementSystem-&gt;&gt;DiveInstructor: Select dives to confirm\nDiveInstructor-&gt;&gt;DiveManagementSystem: Dive selections\nDiveManagementSystem-&gt;&gt;DiveDatabase: Mark dives as confirmed\ndeactivate DiveManagementSystem\nDiveManagementSystem-&gt;&gt;DiveInstructor: Dives confirmed successfully\n@enduml&quot;,&quot;format&quot;:&quot;svg&quot;}" id="wGYJW0pL6X7Hzjq0BeQI-10">
          <mxCell style="shape=image;noLabel=1;verticalAlign=top;aspect=fixed;imageAspect=0;image=data:image/svg+xml,PD94bWwgdmVyc2lvbj0iMS4wIiBlbmNvZGluZz0idXMtYXNjaWkiIHN0YW5kYWxvbmU9Im5vIj8+PHN2ZyB4bWxucz0iaHR0cDovL3d3dy53My5vcmcvMjAwMC9zdmciIHhtbG5zOnhsaW5rPSJodHRwOi8vd3d3LnczLm9yZy8xOTk5L3hsaW5rIiBjb250ZW50U3R5bGVUeXBlPSJ0ZXh0L2NzcyIgaGVpZ2h0PSIzMTlweCIgcHJlc2VydmVBc3BlY3RSYXRpbz0ibm9uZSIgc3R5bGU9IndpZHRoOjUxMXB4O2hlaWdodDozMTlweDtiYWNrZ3JvdW5kOiNGRkZGRkY7IiB2ZXJzaW9uPSIxLjEiIHZpZXdCb3g9IjAgMCA1MTEgMzE5IiB3aWR0aD0iNTExcHgiIHpvb21BbmRQYW49Im1hZ25pZnkiPjxkZWZzLz48Zz48cmVjdCBmaWxsPSIjRkZGRkZGIiBoZWlnaHQ9IjgzLjc0MjIiIHN0eWxlPSJzdHJva2U6IzE4MTgxODtzdHJva2Utd2lkdGg6MS4wOyIgd2lkdGg9IjEwIiB4PSIyNjUiIHk9IjEwOS44OTg0Ii8+PGxpbmUgc3R5bGU9InN0cm9rZTojMTgxODE4O3N0cm9rZS13aWR0aDowLjU7c3Ryb2tlLWRhc2hhcnJheTo1LjAsNS4wOyIgeDE9IjU3IiB4Mj0iNTciIHkxPSI3OS45ODQ0IiB5Mj0iMjM5LjU1NDciLz48bGluZSBzdHlsZT0ic3Ryb2tlOiMxODE4MTg7c3Ryb2tlLXdpZHRoOjAuNTtzdHJva2UtZGFzaGFycmF5OjUuMCw1LjA7IiB4MT0iMjcwIiB4Mj0iMjcwIiB5MT0iNzkuOTg0NCIgeTI9IjIzOS41NTQ3Ii8+PGxpbmUgc3R5bGU9InN0cm9rZTojMTgxODE4O3N0cm9rZS13aWR0aDowLjU7c3Ryb2tlLWRhc2hhcnJheTo1LjAsNS4wOyIgeDE9IjQ1NiIgeDI9IjQ1NiIgeTE9Ijc5Ljk4NDQiIHkyPSIyMzkuNTU0NyIvPjx0ZXh0IGZpbGw9IiMwMDAwMDAiIGZvbnQtZmFtaWx5PSJzYW5zLXNlcmlmIiBmb250LXNpemU9IjE0IiBsZW5ndGhBZGp1c3Q9InNwYWNpbmciIHRleHRMZW5ndGg9Ijk4IiB4PSI1IiB5PSI3OC4yMzQ0Ij5EaXZlSW5zdHJ1Y3RvcjwvdGV4dD48ZWxsaXBzZSBjeD0iNTciIGN5PSIxMy41IiBmaWxsPSIjRTJFMkYwIiByeD0iOCIgcnk9IjgiIHN0eWxlPSJzdHJva2U6IzE4MTgxODtzdHJva2Utd2lkdGg6MC41OyIvPjxwYXRoIGQ9Ik01NywyMS41IEw1Nyw0OC41IE00NCwyOS41IEw3MCwyOS41IE01Nyw0OC41IEw0NCw2My41IE01Nyw0OC41IEw3MCw2My41ICIgZmlsbD0ibm9uZSIgc3R5bGU9InN0cm9rZTojMTgxODE4O3N0cm9rZS13aWR0aDowLjU7Ii8+PHRleHQgZmlsbD0iIzAwMDAwMCIgZm9udC1mYW1pbHk9InNhbnMtc2VyaWYiIGZvbnQtc2l6ZT0iMTQiIGxlbmd0aEFkanVzdD0ic3BhY2luZyIgdGV4dExlbmd0aD0iOTgiIHg9IjUiIHk9IjI1MS43ODkxIj5EaXZlSW5zdHJ1Y3RvcjwvdGV4dD48ZWxsaXBzZSBjeD0iNTciIGN5PSIyNjIuMDM5MSIgZmlsbD0iI0UyRTJGMCIgcng9IjgiIHJ5PSI4IiBzdHlsZT0ic3Ryb2tlOiMxODE4MTg7c3Ryb2tlLXdpZHRoOjAuNTsiLz48cGF0aCBkPSJNNTcsMjcwLjAzOTEgTDU3LDI5Ny4wMzkxIE00NCwyNzguMDM5MSBMNzAsMjc4LjAzOTEgTTU3LDI5Ny4wMzkxIEw0NCwzMTIuMDM5MSBNNTcsMjk3LjAzOTEgTDcwLDMxMi4wMzkxICIgZmlsbD0ibm9uZSIgc3R5bGU9InN0cm9rZTojMTgxODE4O3N0cm9rZS13aWR0aDowLjU7Ii8+PHJlY3QgZmlsbD0iI0UyRTJGMCIgaGVpZ2h0PSIyOC45ODQ0IiByeD0iMi41IiByeT0iMi41IiBzdHlsZT0ic3Ryb2tlOiMxODE4MTg7c3Ryb2tlLXdpZHRoOjAuNTsiIHdpZHRoPSIxNTYiIHg9IjE5MiIgeT0iNTAiLz48dGV4dCBmaWxsPSIjMDAwMDAwIiBmb250LWZhbWlseT0ic2Fucy1zZXJpZiIgZm9udC1zaXplPSIxNCIgbGVuZ3RoQWRqdXN0PSJzcGFjaW5nIiB0ZXh0TGVuZ3RoPSIxNDIiIHg9IjE5OSIgeT0iNzAuMjM0NCI+RGl2ZU1hbmFnZW1lbnRTeXN0ZW08L3RleHQ+PHJlY3QgZmlsbD0iI0UyRTJGMCIgaGVpZ2h0PSIyOC45ODQ0IiByeD0iMi41IiByeT0iMi41IiBzdHlsZT0ic3Ryb2tlOiMxODE4MTg7c3Ryb2tlLXdpZHRoOjAuNTsiIHdpZHRoPSIxNTYiIHg9IjE5MiIgeT0iMjM4LjU1NDciLz48dGV4dCBmaWxsPSIjMDAwMDAwIiBmb250LWZhbWlseT0ic2Fucy1zZXJpZiIgZm9udC1zaXplPSIxNCIgbGVuZ3RoQWRqdXN0PSJzcGFjaW5nIiB0ZXh0TGVuZ3RoPSIxNDIiIHg9IjE5OSIgeT0iMjU4Ljc4OTEiPkRpdmVNYW5hZ2VtZW50U3lzdGVtPC90ZXh0PjxyZWN0IGZpbGw9IiNFMkUyRjAiIGhlaWdodD0iMjguOTg0NCIgcng9IjIuNSIgcnk9IjIuNSIgc3R5bGU9InN0cm9rZTojMTgxODE4O3N0cm9rZS13aWR0aDowLjU7IiB3aWR0aD0iOTgiIHg9IjQwNyIgeT0iNTAiLz48dGV4dCBmaWxsPSIjMDAwMDAwIiBmb250LWZhbWlseT0ic2Fucy1zZXJpZiIgZm9udC1zaXplPSIxNCIgbGVuZ3RoQWRqdXN0PSJzcGFjaW5nIiB0ZXh0TGVuZ3RoPSI4NCIgeD0iNDE0IiB5PSI3MC4yMzQ0Ij5EaXZlRGF0YWJhc2U8L3RleHQ+PHJlY3QgZmlsbD0iI0UyRTJGMCIgaGVpZ2h0PSIyOC45ODQ0IiByeD0iMi41IiByeT0iMi41IiBzdHlsZT0ic3Ryb2tlOiMxODE4MTg7c3Ryb2tlLXdpZHRoOjAuNTsiIHdpZHRoPSI5OCIgeD0iNDA3IiB5PSIyMzguNTU0NyIvPjx0ZXh0IGZpbGw9IiMwMDAwMDAiIGZvbnQtZmFtaWx5PSJzYW5zLXNlcmlmIiBmb250LXNpemU9IjE0IiBsZW5ndGhBZGp1c3Q9InNwYWNpbmciIHRleHRMZW5ndGg9Ijg0IiB4PSI0MTQiIHk9IjI1OC43ODkxIj5EaXZlRGF0YWJhc2U8L3RleHQ+PHJlY3QgZmlsbD0iI0ZGRkZGRiIgaGVpZ2h0PSI4My43NDIyIiBzdHlsZT0ic3Ryb2tlOiMxODE4MTg7c3Ryb2tlLXdpZHRoOjEuMDsiIHdpZHRoPSIxMCIgeD0iMjY1IiB5PSIxMDkuODk4NCIvPjxsaW5lIHN0eWxlPSJzdHJva2U6IzE4MTgxODtzdHJva2Utd2lkdGg6MS4wOyIgeDE9IjI2MyIgeDI9IjI1MyIgeTE9IjEwOS44OTg0IiB5Mj0iMTA1Ljg5ODQiLz48bGluZSBzdHlsZT0ic3Ryb2tlOiMxODE4MTg7c3Ryb2tlLXdpZHRoOjEuMDsiIHgxPSIyNjMiIHgyPSIyNTMiIHkxPSIxMDkuODk4NCIgeTI9IjExMy44OTg0Ii8+PGxpbmUgc3R5bGU9InN0cm9rZTojMTgxODE4O3N0cm9rZS13aWR0aDoxLjA7IiB4MT0iNTciIHgyPSIyNjQiIHkxPSIxMDkuODk4NCIgeTI9IjEwOS44OTg0Ii8+PHRleHQgZmlsbD0iIzAwMDAwMCIgZm9udC1mYW1pbHk9InNhbnMtc2VyaWYiIGZvbnQtc2l6ZT0iMTMiIGxlbmd0aEFkanVzdD0ic3BhY2luZyIgdGV4dExlbmd0aD0iODciIHg9IjY0IiB5PSIxMDYuMjczNCI+Q29uZmlybSBEaXZlczwvdGV4dD48bGluZSBzdHlsZT0ic3Ryb2tlOiMxODE4MTg7c3Ryb2tlLXdpZHRoOjEuMDsiIHgxPSI1OCIgeDI9IjY4IiB5MT0iMTM3LjgxMjUiIHkyPSIxMzMuODEyNSIvPjxsaW5lIHN0eWxlPSJzdHJva2U6IzE4MTgxODtzdHJva2Utd2lkdGg6MS4wOyIgeDE9IjU4IiB4Mj0iNjgiIHkxPSIxMzcuODEyNSIgeTI9IjE0MS44MTI1Ii8+PGxpbmUgc3R5bGU9InN0cm9rZTojMTgxODE4O3N0cm9rZS13aWR0aDoxLjA7IiB4MT0iNTciIHgyPSIyNjQiIHkxPSIxMzcuODEyNSIgeTI9IjEzNy44MTI1Ii8+PHRleHQgZmlsbD0iIzAwMDAwMCIgZm9udC1mYW1pbHk9InNhbnMtc2VyaWYiIGZvbnQtc2l6ZT0iMTMiIGxlbmd0aEFkanVzdD0ic3BhY2luZyIgdGV4dExlbmd0aD0iMTU0IiB4PSI3NCIgeT0iMTM0LjE4NzUiPlNlbGVjdCBkaXZlcyB0byBjb25maXJtPC90ZXh0PjxsaW5lIHN0eWxlPSJzdHJva2U6IzE4MTgxODtzdHJva2Utd2lkdGg6MS4wOyIgeDE9IjI2MyIgeDI9IjI1MyIgeTE9IjE2NS43MjY2IiB5Mj0iMTYxLjcyNjYiLz48bGluZSBzdHlsZT0ic3Ryb2tlOiMxODE4MTg7c3Ryb2tlLXdpZHRoOjEuMDsiIHgxPSIyNjMiIHgyPSIyNTMiIHkxPSIxNjUuNzI2NiIgeTI9IjE2OS43MjY2Ii8+PGxpbmUgc3R5bGU9InN0cm9rZTojMTgxODE4O3N0cm9rZS13aWR0aDoxLjA7IiB4MT0iNTciIHgyPSIyNjQiIHkxPSIxNjUuNzI2NiIgeTI9IjE2NS43MjY2Ii8+PHRleHQgZmlsbD0iIzAwMDAwMCIgZm9udC1mYW1pbHk9InNhbnMtc2VyaWYiIGZvbnQtc2l6ZT0iMTMiIGxlbmd0aEFkanVzdD0ic3BhY2luZyIgdGV4dExlbmd0aD0iMTAxIiB4PSI2NCIgeT0iMTYyLjEwMTYiPkRpdmUgc2VsZWN0aW9uczwvdGV4dD48bGluZSBzdHlsZT0ic3Ryb2tlOiMxODE4MTg7c3Ryb2tlLXdpZHRoOjEuMDsiIHgxPSI0NTQiIHgyPSI0NDQiIHkxPSIxOTMuNjQwNiIgeTI9IjE4OS42NDA2Ii8+PGxpbmUgc3R5bGU9InN0cm9rZTojMTgxODE4O3N0cm9rZS13aWR0aDoxLjA7IiB4MT0iNDU0IiB4Mj0iNDQ0IiB5MT0iMTkzLjY0MDYiIHkyPSIxOTcuNjQwNiIvPjxsaW5lIHN0eWxlPSJzdHJva2U6IzE4MTgxODtzdHJva2Utd2lkdGg6MS4wOyIgeDE9IjI3MCIgeDI9IjQ1NSIgeTE9IjE5My42NDA2IiB5Mj0iMTkzLjY0MDYiLz48dGV4dCBmaWxsPSIjMDAwMDAwIiBmb250LWZhbWlseT0ic2Fucy1zZXJpZiIgZm9udC1zaXplPSIxMyIgbGVuZ3RoQWRqdXN0PSJzcGFjaW5nIiB0ZXh0TGVuZ3RoPSIxNTciIHg9IjI3NyIgeT0iMTkwLjAxNTYiPk1hcmsgZGl2ZXMgYXMgY29uZmlybWVkPC90ZXh0PjxsaW5lIHN0eWxlPSJzdHJva2U6IzE4MTgxODtzdHJva2Utd2lkdGg6MS4wOyIgeDE9IjU4IiB4Mj0iNjgiIHkxPSIyMjEuNTU0NyIgeTI9IjIxNy41NTQ3Ii8+PGxpbmUgc3R5bGU9InN0cm9rZTojMTgxODE4O3N0cm9rZS13aWR0aDoxLjA7IiB4MT0iNTgiIHgyPSI2OCIgeTE9IjIyMS41NTQ3IiB5Mj0iMjI1LjU1NDciLz48bGluZSBzdHlsZT0ic3Ryb2tlOiMxODE4MTg7c3Ryb2tlLXdpZHRoOjEuMDsiIHgxPSI1NyIgeDI9IjI2OSIgeTE9IjIyMS41NTQ3IiB5Mj0iMjIxLjU1NDciLz48dGV4dCBmaWxsPSIjMDAwMDAwIiBmb250LWZhbWlseT0ic2Fucy1zZXJpZiIgZm9udC1zaXplPSIxMyIgbGVuZ3RoQWRqdXN0PSJzcGFjaW5nIiB0ZXh0TGVuZ3RoPSIxODkiIHg9Ijc0IiB5PSIyMTcuOTI5NyI+RGl2ZXMgY29uZmlybWVkIHN1Y2Nlc3NmdWxseTwvdGV4dD48IS0tU1JDPVtoUDB4M2VDbTM0M3RkQzhOdzBLT01DaElXT2FKa0NQS0tWRDFpSzdZemJLMjI1TDVMT1VFX2hyZDZxYlpXaVJFVjBrWVFTZ1g2SjZmOUpqWXE1OWdDVTIzRkdWajViN3M3bXFEQWp2SHM5WHRxZ01rcC1PaGtDT21zRUpCaTFXYWpKQ2dkeWxFYVhsdUM1TkdpTURJdzNDSEQwQWpZYnl0b2JjR21oMG5vM1ZoVmNxNUJRUmRQYUpQWlRvUmRsem9LbGRFV0dNUFk1WGFjOW5STlcwMF0tLT48L2c+PC9zdmc+;" vertex="1" parent="1">
            <mxGeometry x="580" y="1460" width="511" height="319" as="geometry" />
          </mxCell>
        </UserObject>
      </root>
    </mxGraphModel>
  </diagram>
</mxfile>
